<mxfile host="app.diagrams.net" modified="2021-07-23T00:27:46.268Z" agent="5.0 (Windows NT 10.0; Win64; x64) AppleWebKit/537.36 (KHTML, like Gecko) Chrome/91.0.4472.164 Safari/537.36" etag="coMcz3UugvrhIh54iRGv" version="14.9.2" type="github">
  <diagram name="Page-1" id="c4acf3e9-155e-7222-9cf6-157b1a14988f">
    <mxGraphModel dx="2272" dy="1900" grid="1" gridSize="10" guides="1" tooltips="1" connect="1" arrows="1" fold="1" page="1" pageScale="1" pageWidth="850" pageHeight="1100" background="none" math="0" shadow="0">
      <root>
        <mxCell id="0" />
        <mxCell id="1" parent="0" />
        <mxCell id="hk54LcSmm6NopDitDCXq-1" value="unit" style="html=1;overflow=block;blockSpacing=1;whiteSpace=wrap;swimlane;resizeParent=1;resizeParentMax=0;resizeLast=0;collapsible=0;marginBottom=0;fontStyle=0;swimlaneFillColor=#ffffff;startSize=30;whiteSpace=wrap;fontSize=13;fontColor=#333333;align=center;fillColor=#e0e0e0;whiteSpace=wrap;spacing=0;strokeColor=#333333;strokeOpacity=100;fillOpacity=100;rounded=1;absoluteArcSize=1;arcSize=7.5;strokeWidth=0.8;" parent="1" vertex="1">
          <mxGeometry x="1110" y="180" width="210" height="150" as="geometry" />
        </mxCell>
        <mxCell id="hk54LcSmm6NopDitDCXq-2" value="unit_id" style="strokeColor=none;part=1;resizeHeight=0;align=left;verticalAlign=top;spacingLeft=4;spacingRight=4;overflow=hidden;rotatable=0;points=[[0,0.5],[1,0.5]];portConstraint=eastwest;whiteSpace=wrap;swimlaneFillColor=#ffffff;whiteSpace=wrap;fontSize=13;fontColor=#333333;fillColor=none;strokeOpacity=100;fillOpacity=100;whiteSpace=wrap;spacing=0;rounded=1;absoluteArcSize=1;arcSize=7.5;strokeWidth=0.8;" parent="hk54LcSmm6NopDitDCXq-1" vertex="1">
          <mxGeometry y="30" width="130" height="20" as="geometry" />
        </mxCell>
        <mxCell id="hk54LcSmm6NopDitDCXq-3" value="string" style="shape=partialRectangle;top=0;right=0;bottom=0;part=1;resizeHeight=0;align=left;verticalAlign=top;spacingLeft=4;spacingRight=4;overflow=hidden;rotatable=0;points=[[0,0.5],[1,0.5]];portConstraint=eastwest;whiteSpace=wrap;swimlaneFillColor=#ffffff;whiteSpace=wrap;fontSize=13;fontColor=#333333;fillColor=none;strokeOpacity=100;fillOpacity=100;whiteSpace=wrap;spacing=0;strokeColor=#333333;rounded=1;absoluteArcSize=1;arcSize=7.5;strokeWidth=0.8;" parent="hk54LcSmm6NopDitDCXq-1" vertex="1">
          <mxGeometry x="130" y="30" width="80" height="30" as="geometry" />
        </mxCell>
        <mxCell id="hk54LcSmm6NopDitDCXq-4" value="unit_name" style="strokeColor=none;part=1;resizeHeight=0;align=left;verticalAlign=top;spacingLeft=4;spacingRight=4;overflow=hidden;rotatable=0;points=[[0,0.5],[1,0.5]];portConstraint=eastwest;whiteSpace=wrap;swimlaneFillColor=#ffffff;whiteSpace=wrap;fontSize=13;fontColor=#333333;fillColor=none;strokeOpacity=100;fillOpacity=100;whiteSpace=wrap;spacing=0;rounded=1;absoluteArcSize=1;arcSize=7.5;strokeWidth=0.8;" parent="hk54LcSmm6NopDitDCXq-1" vertex="1">
          <mxGeometry y="54" width="130" height="26" as="geometry" />
        </mxCell>
        <mxCell id="hk54LcSmm6NopDitDCXq-5" value="string" style="shape=partialRectangle;top=0;right=0;bottom=0;part=1;resizeHeight=0;align=left;verticalAlign=top;spacingLeft=4;spacingRight=4;overflow=hidden;rotatable=0;points=[[0,0.5],[1,0.5]];portConstraint=eastwest;whiteSpace=wrap;swimlaneFillColor=#ffffff;whiteSpace=wrap;fontSize=13;fontColor=#333333;fillColor=none;strokeOpacity=100;fillOpacity=100;whiteSpace=wrap;spacing=0;strokeColor=#333333;rounded=1;absoluteArcSize=1;arcSize=7.5;strokeWidth=0.8;" parent="hk54LcSmm6NopDitDCXq-1" vertex="1">
          <mxGeometry x="130" y="54" width="80" height="26" as="geometry" />
        </mxCell>
        <mxCell id="hk54LcSmm6NopDitDCXq-6" value="channel_id" style="strokeColor=none;part=1;resizeHeight=0;align=left;verticalAlign=top;spacingLeft=4;spacingRight=4;overflow=hidden;rotatable=0;points=[[0,0.5],[1,0.5]];portConstraint=eastwest;whiteSpace=wrap;swimlaneFillColor=#ffffff;whiteSpace=wrap;fontSize=13;fontColor=#333333;fillColor=none;strokeOpacity=100;fillOpacity=100;whiteSpace=wrap;spacing=0;rounded=1;absoluteArcSize=1;arcSize=7.5;strokeWidth=0.8;" parent="hk54LcSmm6NopDitDCXq-1" vertex="1">
          <mxGeometry y="78" width="130" height="22" as="geometry" />
        </mxCell>
        <mxCell id="hk54LcSmm6NopDitDCXq-7" value="string" style="shape=partialRectangle;top=0;right=0;bottom=0;part=1;resizeHeight=0;align=left;verticalAlign=top;spacingLeft=4;spacingRight=4;overflow=hidden;rotatable=0;points=[[0,0.5],[1,0.5]];portConstraint=eastwest;whiteSpace=wrap;swimlaneFillColor=#ffffff;whiteSpace=wrap;fontSize=13;fontColor=#333333;fillColor=none;strokeOpacity=100;fillOpacity=100;whiteSpace=wrap;spacing=0;strokeColor=#333333;rounded=1;absoluteArcSize=1;arcSize=7.5;strokeWidth=0.8;" parent="hk54LcSmm6NopDitDCXq-1" vertex="1">
          <mxGeometry x="130" y="78" width="80" height="32" as="geometry" />
        </mxCell>
        <mxCell id="hk54LcSmm6NopDitDCXq-8" value="&lt;div style=&quot;display: flex; justify-content: center; text-align: center; align-items: baseline; font-size: 0; line-height: 1.25;margin-top: -2px;&quot;&gt;&lt;span&gt;&lt;span style=&quot;font-size:13px;color:#333333;&quot;&gt;category_set&lt;/span&gt;&lt;span style=&quot;font-size:13px;&quot;&gt;_id&lt;/span&gt;&lt;/span&gt;&lt;/div&gt;" style="strokeColor=none;part=1;resizeHeight=0;align=left;verticalAlign=top;spacingLeft=4;spacingRight=4;overflow=hidden;rotatable=0;points=[[0,0.5],[1,0.5]];portConstraint=eastwest;whiteSpace=wrap;swimlaneFillColor=#ffffff;whiteSpace=wrap;fontSize=13;fontColor=#333333;fillColor=none;strokeOpacity=100;fillOpacity=100;whiteSpace=wrap;html=1;fontSize=13;spacing=0;rounded=1;absoluteArcSize=1;arcSize=7.5;strokeWidth=0.8;" parent="hk54LcSmm6NopDitDCXq-1" vertex="1">
          <mxGeometry y="102" width="130" height="28" as="geometry" />
        </mxCell>
        <mxCell id="hk54LcSmm6NopDitDCXq-9" value="string" style="shape=partialRectangle;top=0;right=0;bottom=0;part=1;resizeHeight=0;align=left;verticalAlign=top;spacingLeft=4;spacingRight=4;overflow=hidden;rotatable=0;points=[[0,0.5],[1,0.5]];portConstraint=eastwest;whiteSpace=wrap;swimlaneFillColor=#ffffff;whiteSpace=wrap;overflow=block;blockSpacing=1;html=1;fontSize=13;fillColor=none;strokeOpacity=100;fillOpacity=100;whiteSpace=wrap;spacing=0;strokeColor=#333333;rounded=1;absoluteArcSize=1;arcSize=7.5;strokeWidth=0.8;" parent="hk54LcSmm6NopDitDCXq-1" vertex="1">
          <mxGeometry x="130" y="102" width="80" height="28" as="geometry" />
        </mxCell>
        <mxCell id="hk54LcSmm6NopDitDCXq-10" value="role_id" style="strokeColor=none;part=1;resizeHeight=0;align=left;verticalAlign=top;spacingLeft=4;spacingRight=4;overflow=hidden;rotatable=0;points=[[0,0.5],[1,0.5]];portConstraint=eastwest;whiteSpace=wrap;swimlaneFillColor=#ffffff;whiteSpace=wrap;fontSize=13;fontColor=#333333;fillColor=none;strokeOpacity=100;fillOpacity=100;whiteSpace=wrap;spacing=0;rounded=1;absoluteArcSize=1;arcSize=7.5;strokeWidth=0.8;" parent="hk54LcSmm6NopDitDCXq-1" vertex="1">
          <mxGeometry y="126" width="130" height="24" as="geometry" />
        </mxCell>
        <mxCell id="hk54LcSmm6NopDitDCXq-11" value="string" style="shape=partialRectangle;top=0;right=0;bottom=0;part=1;resizeHeight=0;align=left;verticalAlign=top;spacingLeft=4;spacingRight=4;overflow=hidden;rotatable=0;points=[[0,0.5],[1,0.5]];portConstraint=eastwest;whiteSpace=wrap;swimlaneFillColor=#ffffff;whiteSpace=wrap;fontSize=13;fontColor=#333333;fillColor=none;strokeOpacity=100;fillOpacity=100;whiteSpace=wrap;spacing=0;strokeColor=#333333;rounded=1;absoluteArcSize=1;arcSize=7.5;strokeWidth=0.8;" parent="hk54LcSmm6NopDitDCXq-1" vertex="1">
          <mxGeometry x="130" y="126" width="80" height="24" as="geometry" />
        </mxCell>
        <mxCell id="hk54LcSmm6NopDitDCXq-12" value="guild" style="html=1;overflow=block;blockSpacing=1;whiteSpace=wrap;swimlane;resizeParent=1;resizeParentMax=0;resizeLast=0;collapsible=0;marginBottom=0;fontStyle=0;swimlaneFillColor=#ffffff;startSize=30;whiteSpace=wrap;fontSize=13;fontColor=#333333;align=center;fillColor=#e0e0e0;whiteSpace=wrap;spacing=0;strokeColor=#333333;strokeOpacity=100;fillOpacity=100;rounded=1;absoluteArcSize=1;arcSize=7.5;strokeWidth=0.8;" parent="1" vertex="1">
          <mxGeometry x="-15" y="117" width="210" height="150" as="geometry" />
        </mxCell>
        <mxCell id="hk54LcSmm6NopDitDCXq-13" value="guild_id" style="strokeColor=none;part=1;resizeHeight=0;align=left;verticalAlign=top;spacingLeft=4;spacingRight=4;overflow=hidden;rotatable=0;points=[[0,0.5],[1,0.5]];portConstraint=eastwest;whiteSpace=wrap;swimlaneFillColor=#ffffff;whiteSpace=wrap;fontSize=13;fontColor=#333333;fillColor=none;strokeOpacity=100;fillOpacity=100;whiteSpace=wrap;spacing=0;rounded=1;absoluteArcSize=1;arcSize=7.5;strokeWidth=0.8;" parent="hk54LcSmm6NopDitDCXq-12" vertex="1">
          <mxGeometry y="30" width="152.85039370079306" height="24" as="geometry" />
        </mxCell>
        <mxCell id="hk54LcSmm6NopDitDCXq-14" value="string" style="shape=partialRectangle;top=0;right=0;bottom=0;part=1;resizeHeight=0;align=left;verticalAlign=top;spacingLeft=4;spacingRight=4;overflow=hidden;rotatable=0;points=[[0,0.5],[1,0.5]];portConstraint=eastwest;whiteSpace=wrap;swimlaneFillColor=#ffffff;whiteSpace=wrap;fontSize=13;fontColor=#333333;fillColor=none;strokeOpacity=100;fillOpacity=100;whiteSpace=wrap;spacing=0;strokeColor=#333333;rounded=1;absoluteArcSize=1;arcSize=7.5;strokeWidth=0.8;" parent="hk54LcSmm6NopDitDCXq-12" vertex="1">
          <mxGeometry x="152.85039370079306" y="30" width="57.14960629920694" height="24" as="geometry" />
        </mxCell>
        <mxCell id="hk54LcSmm6NopDitDCXq-15" value="guild_unhide_id" style="strokeColor=none;part=1;resizeHeight=0;align=left;verticalAlign=top;spacingLeft=4;spacingRight=4;overflow=hidden;rotatable=0;points=[[0,0.5],[1,0.5]];portConstraint=eastwest;whiteSpace=wrap;swimlaneFillColor=#ffffff;whiteSpace=wrap;fontSize=13;fillColor=none;strokeOpacity=100;fillOpacity=100;whiteSpace=wrap;spacing=0;rounded=1;absoluteArcSize=1;arcSize=7.5;strokeWidth=0.8;" parent="hk54LcSmm6NopDitDCXq-12" vertex="1">
          <mxGeometry y="54" width="152.85039370079306" height="24" as="geometry" />
        </mxCell>
        <mxCell id="hk54LcSmm6NopDitDCXq-16" value="string" style="shape=partialRectangle;top=0;right=0;bottom=0;part=1;resizeHeight=0;align=left;verticalAlign=top;spacingLeft=4;spacingRight=4;overflow=hidden;rotatable=0;points=[[0,0.5],[1,0.5]];portConstraint=eastwest;whiteSpace=wrap;swimlaneFillColor=#ffffff;whiteSpace=wrap;fontSize=13;fontColor=#333333;fillColor=none;strokeOpacity=100;fillOpacity=100;whiteSpace=wrap;spacing=0;strokeColor=#333333;rounded=1;absoluteArcSize=1;arcSize=7.5;strokeWidth=0.8;" parent="hk54LcSmm6NopDitDCXq-12" vertex="1">
          <mxGeometry x="152.85039370079306" y="54" width="57.14960629920694" height="24" as="geometry" />
        </mxCell>
        <mxCell id="hk54LcSmm6NopDitDCXq-17" value="guild_mute_cat_id" style="strokeColor=none;part=1;resizeHeight=0;align=left;verticalAlign=top;spacingLeft=4;spacingRight=4;overflow=hidden;rotatable=0;points=[[0,0.5],[1,0.5]];portConstraint=eastwest;whiteSpace=wrap;swimlaneFillColor=#ffffff;whiteSpace=wrap;fontSize=13;fillColor=none;strokeOpacity=100;fillOpacity=100;whiteSpace=wrap;spacing=0;rounded=1;absoluteArcSize=1;arcSize=7.5;strokeWidth=0.8;" parent="hk54LcSmm6NopDitDCXq-12" vertex="1">
          <mxGeometry y="78" width="152.85039370079306" height="24" as="geometry" />
        </mxCell>
        <mxCell id="hk54LcSmm6NopDitDCXq-18" value="string" style="shape=partialRectangle;top=0;right=0;bottom=0;part=1;resizeHeight=0;align=left;verticalAlign=top;spacingLeft=4;spacingRight=4;overflow=hidden;rotatable=0;points=[[0,0.5],[1,0.5]];portConstraint=eastwest;whiteSpace=wrap;swimlaneFillColor=#ffffff;whiteSpace=wrap;fontSize=13;fillColor=none;strokeOpacity=100;fillOpacity=100;whiteSpace=wrap;spacing=0;strokeColor=#333333;rounded=1;absoluteArcSize=1;arcSize=7.5;strokeWidth=0.8;" parent="hk54LcSmm6NopDitDCXq-12" vertex="1">
          <mxGeometry x="152.85039370079306" y="78" width="57.14960629920694" height="24" as="geometry" />
        </mxCell>
        <mxCell id="hk54LcSmm6NopDitDCXq-19" value="guild_mute_cat_arch_id" style="strokeColor=none;part=1;resizeHeight=0;align=left;verticalAlign=top;spacingLeft=4;spacingRight=4;overflow=hidden;rotatable=0;points=[[0,0.5],[1,0.5]];portConstraint=eastwest;whiteSpace=wrap;swimlaneFillColor=#ffffff;whiteSpace=wrap;fontSize=13;fillColor=none;strokeOpacity=100;fillOpacity=100;whiteSpace=wrap;spacing=0;rounded=1;absoluteArcSize=1;arcSize=7.5;strokeWidth=0.8;" parent="hk54LcSmm6NopDitDCXq-12" vertex="1">
          <mxGeometry y="102" width="152.85039370079306" height="24" as="geometry" />
        </mxCell>
        <mxCell id="hk54LcSmm6NopDitDCXq-20" value="string" style="shape=partialRectangle;top=0;right=0;bottom=0;part=1;resizeHeight=0;align=left;verticalAlign=top;spacingLeft=4;spacingRight=4;overflow=hidden;rotatable=0;points=[[0,0.5],[1,0.5]];portConstraint=eastwest;whiteSpace=wrap;swimlaneFillColor=#ffffff;whiteSpace=wrap;fontSize=13;fillColor=none;strokeOpacity=100;fillOpacity=100;whiteSpace=wrap;spacing=0;strokeColor=#333333;rounded=1;absoluteArcSize=1;arcSize=7.5;strokeWidth=0.8;" parent="hk54LcSmm6NopDitDCXq-12" vertex="1">
          <mxGeometry x="152.85039370079306" y="102" width="57.14960629920694" height="24" as="geometry" />
        </mxCell>
        <mxCell id="hk54LcSmm6NopDitDCXq-21" value="guild_mute_role_id" style="strokeColor=none;part=1;resizeHeight=0;align=left;verticalAlign=top;spacingLeft=4;spacingRight=4;overflow=hidden;rotatable=0;points=[[0,0.5],[1,0.5]];portConstraint=eastwest;whiteSpace=wrap;swimlaneFillColor=#ffffff;whiteSpace=wrap;fontSize=13;fillColor=none;strokeOpacity=100;fillOpacity=100;whiteSpace=wrap;spacing=0;rounded=1;absoluteArcSize=1;arcSize=7.5;strokeWidth=0.8;" parent="hk54LcSmm6NopDitDCXq-12" vertex="1">
          <mxGeometry y="126" width="152.85039370079306" height="24" as="geometry" />
        </mxCell>
        <mxCell id="hk54LcSmm6NopDitDCXq-22" value="string" style="shape=partialRectangle;top=0;right=0;bottom=0;part=1;resizeHeight=0;align=left;verticalAlign=top;spacingLeft=4;spacingRight=4;overflow=hidden;rotatable=0;points=[[0,0.5],[1,0.5]];portConstraint=eastwest;whiteSpace=wrap;swimlaneFillColor=#ffffff;whiteSpace=wrap;fontSize=13;fillColor=none;strokeOpacity=100;fillOpacity=100;whiteSpace=wrap;spacing=0;strokeColor=#333333;rounded=1;absoluteArcSize=1;arcSize=7.5;strokeWidth=0.8;" parent="hk54LcSmm6NopDitDCXq-12" vertex="1">
          <mxGeometry x="152.85039370079306" y="126" width="57.14960629920694" height="24" as="geometry" />
        </mxCell>
        <mxCell id="hk54LcSmm6NopDitDCXq-23" value="category_set" style="html=1;overflow=block;blockSpacing=1;whiteSpace=wrap;swimlane;resizeParent=1;resizeParentMax=0;resizeLast=0;collapsible=0;marginBottom=0;fontStyle=0;swimlaneFillColor=#ffffff;startSize=30;whiteSpace=wrap;fontSize=13;fontColor=#333333;align=center;fillColor=#e0e0e0;whiteSpace=wrap;spacing=0;strokeColor=#333333;strokeOpacity=100;fillOpacity=100;rounded=1;absoluteArcSize=1;arcSize=7.5;strokeWidth=0.8;" parent="1" vertex="1">
          <mxGeometry x="320" y="93" width="210" height="102" as="geometry" />
        </mxCell>
        <mxCell id="hk54LcSmm6NopDitDCXq-24" value="category_set_id" style="strokeColor=none;part=1;resizeHeight=0;align=left;verticalAlign=top;spacingLeft=4;spacingRight=4;overflow=hidden;rotatable=0;points=[[0,0.5],[1,0.5]];portConstraint=eastwest;whiteSpace=wrap;swimlaneFillColor=#ffffff;whiteSpace=wrap;fontSize=13;fontColor=#333333;fillColor=none;strokeOpacity=100;fillOpacity=100;whiteSpace=wrap;spacing=0;rounded=1;absoluteArcSize=1;arcSize=7.5;strokeWidth=0.8;" parent="hk54LcSmm6NopDitDCXq-23" vertex="1">
          <mxGeometry y="30" width="143.00000000000108" height="24" as="geometry" />
        </mxCell>
        <mxCell id="hk54LcSmm6NopDitDCXq-25" value="string" style="shape=partialRectangle;top=0;right=0;bottom=0;part=1;resizeHeight=0;align=left;verticalAlign=top;spacingLeft=4;spacingRight=4;overflow=hidden;rotatable=0;points=[[0,0.5],[1,0.5]];portConstraint=eastwest;whiteSpace=wrap;swimlaneFillColor=#ffffff;whiteSpace=wrap;fontSize=13;fontColor=#333333;fillColor=none;strokeOpacity=100;fillOpacity=100;whiteSpace=wrap;spacing=0;strokeColor=#333333;rounded=1;absoluteArcSize=1;arcSize=7.5;strokeWidth=0.8;" parent="hk54LcSmm6NopDitDCXq-23" vertex="1">
          <mxGeometry x="143.00000000000108" y="30" width="66.99999999999892" height="24" as="geometry" />
        </mxCell>
        <mxCell id="hk54LcSmm6NopDitDCXq-26" value="category_set_name" style="strokeColor=none;part=1;resizeHeight=0;align=left;verticalAlign=top;spacingLeft=4;spacingRight=4;overflow=hidden;rotatable=0;points=[[0,0.5],[1,0.5]];portConstraint=eastwest;whiteSpace=wrap;swimlaneFillColor=#ffffff;whiteSpace=wrap;fontSize=13;fontColor=#333333;fillColor=none;strokeOpacity=100;fillOpacity=100;whiteSpace=wrap;spacing=0;rounded=1;absoluteArcSize=1;arcSize=7.5;strokeWidth=0.8;" parent="hk54LcSmm6NopDitDCXq-23" vertex="1">
          <mxGeometry y="54" width="143.00000000000108" height="24" as="geometry" />
        </mxCell>
        <mxCell id="hk54LcSmm6NopDitDCXq-27" value="string" style="shape=partialRectangle;top=0;right=0;bottom=0;part=1;resizeHeight=0;align=left;verticalAlign=top;spacingLeft=4;spacingRight=4;overflow=hidden;rotatable=0;points=[[0,0.5],[1,0.5]];portConstraint=eastwest;whiteSpace=wrap;swimlaneFillColor=#ffffff;whiteSpace=wrap;fontSize=13;fontColor=#333333;fillColor=none;strokeOpacity=100;fillOpacity=100;whiteSpace=wrap;spacing=0;strokeColor=#333333;rounded=1;absoluteArcSize=1;arcSize=7.5;strokeWidth=0.8;" parent="hk54LcSmm6NopDitDCXq-23" vertex="1">
          <mxGeometry x="143.00000000000108" y="54" width="66.99999999999892" height="24" as="geometry" />
        </mxCell>
        <mxCell id="hk54LcSmm6NopDitDCXq-28" value="guild_id" style="strokeColor=none;part=1;resizeHeight=0;align=left;verticalAlign=top;spacingLeft=4;spacingRight=4;overflow=hidden;rotatable=0;points=[[0,0.5],[1,0.5]];portConstraint=eastwest;whiteSpace=wrap;swimlaneFillColor=#ffffff;whiteSpace=wrap;fontSize=13;fontColor=#333333;fillColor=none;strokeOpacity=100;fillOpacity=100;whiteSpace=wrap;spacing=0;rounded=1;absoluteArcSize=1;arcSize=7.5;strokeWidth=0.8;" parent="hk54LcSmm6NopDitDCXq-23" vertex="1">
          <mxGeometry y="78" width="143.00000000000108" height="24" as="geometry" />
        </mxCell>
        <mxCell id="hk54LcSmm6NopDitDCXq-29" value="string" style="shape=partialRectangle;top=0;right=0;bottom=0;part=1;resizeHeight=0;align=left;verticalAlign=top;spacingLeft=4;spacingRight=4;overflow=hidden;rotatable=0;points=[[0,0.5],[1,0.5]];portConstraint=eastwest;whiteSpace=wrap;swimlaneFillColor=#ffffff;whiteSpace=wrap;fontSize=13;fontColor=#333333;fillColor=none;strokeOpacity=100;fillOpacity=100;whiteSpace=wrap;spacing=0;strokeColor=#333333;rounded=1;absoluteArcSize=1;arcSize=7.5;strokeWidth=0.8;" parent="hk54LcSmm6NopDitDCXq-23" vertex="1">
          <mxGeometry x="143.00000000000108" y="78" width="66.99999999999892" height="24" as="geometry" />
        </mxCell>
        <UserObject label="" lucidchartObjectId="LHTUyw~_hFOe" id="hk54LcSmm6NopDitDCXq-30">
          <mxCell style="html=1;jettySize=18;whiteSpace=wrap;fontSize=13;strokeColor=#333333;strokeOpacity=100;strokeWidth=0.8;rounded=1;arcSize=24;edgeStyle=orthogonalEdgeStyle;startArrow=ERone;startSize=16;;endArrow=ERmany;endSize=10;;exitX=1.002;exitY=0.28;exitPerimeter=0;entryX=-0.002;entryY=0.882;entryPerimeter=0;" parent="1" source="hk54LcSmm6NopDitDCXq-12" target="hk54LcSmm6NopDitDCXq-23" edge="1">
            <mxGeometry width="100" height="100" relative="1" as="geometry">
              <Array as="points" />
            </mxGeometry>
          </mxCell>
        </UserObject>
        <UserObject label="" lucidchartObjectId="LHTU71N6wl_G" id="hk54LcSmm6NopDitDCXq-31">
          <mxCell style="html=1;jettySize=18;whiteSpace=wrap;fontSize=13;strokeColor=#333333;strokeOpacity=100;strokeWidth=0.8;rounded=1;arcSize=24;edgeStyle=orthogonalEdgeStyle;startArrow=ERone;startSize=16;;endArrow=ERmany;endSize=10;;exitX=1.002;exitY=0.412;exitPerimeter=0;entryX=-0.002;entryY=0.76;entryPerimeter=0;" parent="1" source="hk54LcSmm6NopDitDCXq-23" target="hk54LcSmm6NopDitDCXq-1" edge="1">
            <mxGeometry width="100" height="100" relative="1" as="geometry">
              <Array as="points">
                <mxPoint x="1050" y="135" />
                <mxPoint x="1050" y="294" />
              </Array>
            </mxGeometry>
          </mxCell>
        </UserObject>
        <mxCell id="hk54LcSmm6NopDitDCXq-32" value="role_channel" style="html=1;overflow=block;blockSpacing=1;whiteSpace=wrap;swimlane;resizeParent=1;resizeParentMax=0;resizeLast=0;collapsible=0;marginBottom=0;fontStyle=0;swimlaneFillColor=#ffffff;startSize=30;whiteSpace=wrap;fontSize=13;fontColor=#333333;align=center;fillColor=#e0e0e0;whiteSpace=wrap;spacing=0;strokeColor=#333333;strokeOpacity=100;fillOpacity=100;rounded=1;absoluteArcSize=1;arcSize=7.5;strokeWidth=0.8;" parent="1" vertex="1">
          <mxGeometry x="120" y="390" width="210" height="78" as="geometry" />
        </mxCell>
        <mxCell id="hk54LcSmm6NopDitDCXq-33" value="role_channel_id" style="strokeColor=none;part=1;resizeHeight=0;align=left;verticalAlign=top;spacingLeft=4;spacingRight=4;overflow=hidden;rotatable=0;points=[[0,0.5],[1,0.5]];portConstraint=eastwest;whiteSpace=wrap;swimlaneFillColor=#ffffff;whiteSpace=wrap;fontSize=13;fontColor=#333333;fillColor=none;strokeOpacity=100;fillOpacity=100;whiteSpace=wrap;spacing=0;rounded=1;absoluteArcSize=1;arcSize=7.5;strokeWidth=0.8;" parent="hk54LcSmm6NopDitDCXq-32" vertex="1">
          <mxGeometry y="30" width="127.00000000000041" height="24" as="geometry" />
        </mxCell>
        <mxCell id="hk54LcSmm6NopDitDCXq-34" value="string" style="shape=partialRectangle;top=0;right=0;bottom=0;part=1;resizeHeight=0;align=left;verticalAlign=top;spacingLeft=4;spacingRight=4;overflow=hidden;rotatable=0;points=[[0,0.5],[1,0.5]];portConstraint=eastwest;whiteSpace=wrap;swimlaneFillColor=#ffffff;whiteSpace=wrap;fontSize=13;fontColor=#333333;fillColor=none;strokeOpacity=100;fillOpacity=100;whiteSpace=wrap;spacing=0;strokeColor=#333333;rounded=1;absoluteArcSize=1;arcSize=7.5;strokeWidth=0.8;" parent="hk54LcSmm6NopDitDCXq-32" vertex="1">
          <mxGeometry x="127.00000000000041" y="30" width="82.99999999999959" height="24" as="geometry" />
        </mxCell>
        <mxCell id="hk54LcSmm6NopDitDCXq-35" value="guild_id" style="strokeColor=none;part=1;resizeHeight=0;align=left;verticalAlign=top;spacingLeft=4;spacingRight=4;overflow=hidden;rotatable=0;points=[[0,0.5],[1,0.5]];portConstraint=eastwest;whiteSpace=wrap;swimlaneFillColor=#ffffff;whiteSpace=wrap;fontSize=13;fontColor=#333333;fillColor=none;strokeOpacity=100;fillOpacity=100;whiteSpace=wrap;spacing=0;rounded=1;absoluteArcSize=1;arcSize=7.5;strokeWidth=0.8;" parent="hk54LcSmm6NopDitDCXq-32" vertex="1">
          <mxGeometry y="54" width="127.00000000000041" height="24" as="geometry" />
        </mxCell>
        <mxCell id="hk54LcSmm6NopDitDCXq-36" value="string" style="shape=partialRectangle;top=0;right=0;bottom=0;part=1;resizeHeight=0;align=left;verticalAlign=top;spacingLeft=4;spacingRight=4;overflow=hidden;rotatable=0;points=[[0,0.5],[1,0.5]];portConstraint=eastwest;whiteSpace=wrap;swimlaneFillColor=#ffffff;whiteSpace=wrap;fontSize=13;fontColor=#333333;fillColor=none;strokeOpacity=100;fillOpacity=100;whiteSpace=wrap;spacing=0;strokeColor=#333333;rounded=1;absoluteArcSize=1;arcSize=7.5;strokeWidth=0.8;" parent="hk54LcSmm6NopDitDCXq-32" vertex="1">
          <mxGeometry x="127.00000000000041" y="54" width="82.99999999999959" height="24" as="geometry" />
        </mxCell>
        <mxCell id="hk54LcSmm6NopDitDCXq-37" value="role_menu" style="html=1;overflow=block;blockSpacing=1;whiteSpace=wrap;swimlane;resizeParent=1;resizeParentMax=0;resizeLast=0;collapsible=0;marginBottom=0;fontStyle=0;swimlaneFillColor=#ffffff;startSize=30;whiteSpace=wrap;fontSize=13;fontColor=#333333;align=center;fillColor=#e0e0e0;whiteSpace=wrap;spacing=0;strokeColor=#333333;strokeOpacity=100;fillOpacity=100;rounded=1;absoluteArcSize=1;arcSize=7.5;strokeWidth=0.8;" parent="1" vertex="1">
          <mxGeometry x="428" y="374" width="210" height="126" as="geometry" />
        </mxCell>
        <mxCell id="hk54LcSmm6NopDitDCXq-38" value="role_menu_id" style="strokeColor=none;part=1;resizeHeight=0;align=left;verticalAlign=top;spacingLeft=4;spacingRight=4;overflow=hidden;rotatable=0;points=[[0,0.5],[1,0.5]];portConstraint=eastwest;whiteSpace=wrap;swimlaneFillColor=#ffffff;whiteSpace=wrap;fontSize=13;fontColor=#333333;fillColor=none;strokeOpacity=100;fillOpacity=100;whiteSpace=wrap;spacing=0;rounded=1;absoluteArcSize=1;arcSize=7.5;strokeWidth=0.8;" parent="hk54LcSmm6NopDitDCXq-37" vertex="1">
          <mxGeometry y="30" width="118.0000000000008" height="24" as="geometry" />
        </mxCell>
        <mxCell id="hk54LcSmm6NopDitDCXq-39" value="string" style="shape=partialRectangle;top=0;right=0;bottom=0;part=1;resizeHeight=0;align=left;verticalAlign=top;spacingLeft=4;spacingRight=4;overflow=hidden;rotatable=0;points=[[0,0.5],[1,0.5]];portConstraint=eastwest;whiteSpace=wrap;swimlaneFillColor=#ffffff;whiteSpace=wrap;fontSize=13;fontColor=#333333;fillColor=none;strokeOpacity=100;fillOpacity=100;whiteSpace=wrap;spacing=0;strokeColor=#333333;rounded=1;absoluteArcSize=1;arcSize=7.5;strokeWidth=0.8;" parent="hk54LcSmm6NopDitDCXq-37" vertex="1">
          <mxGeometry x="118.0000000000008" y="30" width="91.9999999999992" height="24" as="geometry" />
        </mxCell>
        <mxCell id="hk54LcSmm6NopDitDCXq-40" value="role_menu_name" style="strokeColor=none;part=1;resizeHeight=0;align=left;verticalAlign=top;spacingLeft=4;spacingRight=4;overflow=hidden;rotatable=0;points=[[0,0.5],[1,0.5]];portConstraint=eastwest;whiteSpace=wrap;swimlaneFillColor=#ffffff;whiteSpace=wrap;fontSize=13;fontColor=#333333;fillColor=none;strokeOpacity=100;fillOpacity=100;whiteSpace=wrap;spacing=0;rounded=1;absoluteArcSize=1;arcSize=7.5;strokeWidth=0.8;" parent="hk54LcSmm6NopDitDCXq-37" vertex="1">
          <mxGeometry y="54" width="118.0000000000008" height="24" as="geometry" />
        </mxCell>
        <mxCell id="hk54LcSmm6NopDitDCXq-41" value="string" style="shape=partialRectangle;top=0;right=0;bottom=0;part=1;resizeHeight=0;align=left;verticalAlign=top;spacingLeft=4;spacingRight=4;overflow=hidden;rotatable=0;points=[[0,0.5],[1,0.5]];portConstraint=eastwest;whiteSpace=wrap;swimlaneFillColor=#ffffff;whiteSpace=wrap;fontSize=13;fontColor=#333333;fillColor=none;strokeOpacity=100;fillOpacity=100;whiteSpace=wrap;spacing=0;strokeColor=#333333;rounded=1;absoluteArcSize=1;arcSize=7.5;strokeWidth=0.8;" parent="hk54LcSmm6NopDitDCXq-37" vertex="1">
          <mxGeometry x="118.0000000000008" y="54" width="91.9999999999992" height="24" as="geometry" />
        </mxCell>
        <mxCell id="hk54LcSmm6NopDitDCXq-42" value="role_head_id" style="strokeColor=none;part=1;resizeHeight=0;align=left;verticalAlign=top;spacingLeft=4;spacingRight=4;overflow=hidden;rotatable=0;points=[[0,0.5],[1,0.5]];portConstraint=eastwest;whiteSpace=wrap;swimlaneFillColor=#ffffff;whiteSpace=wrap;fontSize=13;fillColor=none;strokeOpacity=100;fillOpacity=100;whiteSpace=wrap;spacing=0;rounded=1;absoluteArcSize=1;arcSize=7.5;strokeWidth=0.8;" parent="hk54LcSmm6NopDitDCXq-37" vertex="1">
          <mxGeometry y="78" width="118.0000000000008" height="24" as="geometry" />
        </mxCell>
        <mxCell id="hk54LcSmm6NopDitDCXq-43" value="string" style="shape=partialRectangle;top=0;right=0;bottom=0;part=1;resizeHeight=0;align=left;verticalAlign=top;spacingLeft=4;spacingRight=4;overflow=hidden;rotatable=0;points=[[0,0.5],[1,0.5]];portConstraint=eastwest;whiteSpace=wrap;swimlaneFillColor=#ffffff;whiteSpace=wrap;fontSize=13;fontColor=#333333;fillColor=none;strokeOpacity=100;fillOpacity=100;whiteSpace=wrap;spacing=0;strokeColor=#333333;rounded=1;absoluteArcSize=1;arcSize=7.5;strokeWidth=0.8;" parent="hk54LcSmm6NopDitDCXq-37" vertex="1">
          <mxGeometry x="118.0000000000008" y="78" width="91.9999999999992" height="24" as="geometry" />
        </mxCell>
        <mxCell id="hk54LcSmm6NopDitDCXq-44" value="role_channel_id" style="strokeColor=none;part=1;resizeHeight=0;align=left;verticalAlign=top;spacingLeft=4;spacingRight=4;overflow=hidden;rotatable=0;points=[[0,0.5],[1,0.5]];portConstraint=eastwest;whiteSpace=wrap;swimlaneFillColor=#ffffff;whiteSpace=wrap;fontSize=13;fontColor=#333333;fillColor=none;strokeOpacity=100;fillOpacity=100;whiteSpace=wrap;spacing=0;rounded=1;absoluteArcSize=1;arcSize=7.5;strokeWidth=0.8;" parent="hk54LcSmm6NopDitDCXq-37" vertex="1">
          <mxGeometry y="102" width="118.0000000000008" height="24" as="geometry" />
        </mxCell>
        <mxCell id="hk54LcSmm6NopDitDCXq-45" value="string" style="shape=partialRectangle;top=0;right=0;bottom=0;part=1;resizeHeight=0;align=left;verticalAlign=top;spacingLeft=4;spacingRight=4;overflow=hidden;rotatable=0;points=[[0,0.5],[1,0.5]];portConstraint=eastwest;whiteSpace=wrap;swimlaneFillColor=#ffffff;whiteSpace=wrap;fontSize=13;fontColor=#333333;fillColor=none;strokeOpacity=100;fillOpacity=100;whiteSpace=wrap;spacing=0;strokeColor=#333333;rounded=1;absoluteArcSize=1;arcSize=7.5;strokeWidth=0.8;" parent="hk54LcSmm6NopDitDCXq-37" vertex="1">
          <mxGeometry x="118.0000000000008" y="102" width="91.9999999999992" height="24" as="geometry" />
        </mxCell>
        <UserObject label="" lucidchartObjectId="LHTUwiyLvr9U" id="hk54LcSmm6NopDitDCXq-46">
          <mxCell style="html=1;jettySize=18;whiteSpace=wrap;fontSize=13;strokeColor=#333333;strokeOpacity=100;strokeWidth=0.8;rounded=1;arcSize=24;edgeStyle=orthogonalEdgeStyle;startArrow=ERone;startSize=16;;endArrow=ERmany;endSize=10;;exitX=1.002;exitY=0.28;exitPerimeter=0;entryX=-0.002;entryY=0.846;entryPerimeter=0;" parent="1" source="hk54LcSmm6NopDitDCXq-12" target="hk54LcSmm6NopDitDCXq-32" edge="1">
            <mxGeometry width="100" height="100" relative="1" as="geometry">
              <Array as="points" />
            </mxGeometry>
          </mxCell>
        </UserObject>
        <UserObject label="" lucidchartObjectId="LHTUjFr9lPdy" id="hk54LcSmm6NopDitDCXq-47">
          <mxCell style="html=1;jettySize=18;whiteSpace=wrap;fontSize=13;strokeColor=#333333;strokeOpacity=100;strokeWidth=0.8;rounded=1;arcSize=24;edgeStyle=orthogonalEdgeStyle;startArrow=ERone;startSize=16;;endArrow=ERmany;endSize=10;;exitX=1.002;exitY=0.538;exitPerimeter=0;entryX=-0.002;entryY=0.905;entryPerimeter=0;" parent="1" source="hk54LcSmm6NopDitDCXq-32" target="hk54LcSmm6NopDitDCXq-37" edge="1">
            <mxGeometry width="100" height="100" relative="1" as="geometry">
              <Array as="points" />
            </mxGeometry>
          </mxCell>
        </UserObject>
        <UserObject label="" lucidchartObjectId="LHTU8~Ln3JQl" id="hk54LcSmm6NopDitDCXq-48">
          <mxCell style="html=1;jettySize=18;whiteSpace=wrap;fontSize=13;strokeColor=#333333;strokeOpacity=100;strokeWidth=0.8;rounded=1;arcSize=24;edgeStyle=orthogonalEdgeStyle;startArrow=ERone;startSize=16;;endArrow=ERmany;endSize=10;;exitX=1.002;exitY=0.333;exitPerimeter=0;entryX=-0.002;entryY=0.882;entryPerimeter=0;" parent="1" source="hk54LcSmm6NopDitDCXq-37" target="hk54LcSmm6NopDitDCXq-83" edge="1">
            <mxGeometry width="100" height="100" relative="1" as="geometry">
              <Array as="points" />
            </mxGeometry>
          </mxCell>
        </UserObject>
        <mxCell id="hk54LcSmm6NopDitDCXq-49" value="Tag" style="html=1;overflow=block;blockSpacing=1;whiteSpace=wrap;swimlane;resizeParent=1;resizeParentMax=0;resizeLast=0;collapsible=0;marginBottom=0;fontStyle=0;swimlaneFillColor=#ffffff;startSize=30;whiteSpace=wrap;fontSize=13;align=center;fillColor=#f8cecc;whiteSpace=wrap;spacing=0;strokeColor=#b85450;strokeOpacity=100;fillOpacity=100;rounded=1;absoluteArcSize=1;arcSize=7.5;strokeWidth=0.8;" parent="1" vertex="1">
          <mxGeometry x="900" y="705" width="210" height="150" as="geometry" />
        </mxCell>
        <mxCell id="hk54LcSmm6NopDitDCXq-50" value="tag_id" style="strokeColor=none;part=1;resizeHeight=0;align=left;verticalAlign=top;spacingLeft=4;spacingRight=4;overflow=hidden;rotatable=0;points=[[0,0.5],[1,0.5]];portConstraint=eastwest;whiteSpace=wrap;swimlaneFillColor=#ffffff;whiteSpace=wrap;fontSize=13;fontColor=#333333;fillColor=none;strokeOpacity=100;fillOpacity=100;whiteSpace=wrap;spacing=0;rounded=1;absoluteArcSize=1;arcSize=7.5;strokeWidth=0.8;" parent="hk54LcSmm6NopDitDCXq-49" vertex="1">
          <mxGeometry y="30" width="103.7098759318961" height="24" as="geometry" />
        </mxCell>
        <mxCell id="hk54LcSmm6NopDitDCXq-51" value="string" style="shape=partialRectangle;top=0;right=0;bottom=0;part=1;resizeHeight=0;align=left;verticalAlign=top;spacingLeft=4;spacingRight=4;overflow=hidden;rotatable=0;points=[[0,0.5],[1,0.5]];portConstraint=eastwest;whiteSpace=wrap;swimlaneFillColor=#ffffff;whiteSpace=wrap;fontSize=13;fillColor=none;strokeOpacity=100;fillOpacity=100;whiteSpace=wrap;spacing=0;strokeColor=#333333;rounded=1;absoluteArcSize=1;arcSize=7.5;strokeWidth=0.8;" parent="hk54LcSmm6NopDitDCXq-49" vertex="1">
          <mxGeometry x="103.7098759318961" y="30" width="106.2901240681039" height="24" as="geometry" />
        </mxCell>
        <mxCell id="hk54LcSmm6NopDitDCXq-52" value="username" style="strokeColor=none;part=1;resizeHeight=0;align=left;verticalAlign=top;spacingLeft=4;spacingRight=4;overflow=hidden;rotatable=0;points=[[0,0.5],[1,0.5]];portConstraint=eastwest;whiteSpace=wrap;swimlaneFillColor=#ffffff;whiteSpace=wrap;fontSize=13;fontColor=#333333;fillColor=none;strokeOpacity=100;fillOpacity=100;whiteSpace=wrap;spacing=0;rounded=1;absoluteArcSize=1;arcSize=7.5;strokeWidth=0.8;" parent="hk54LcSmm6NopDitDCXq-49" vertex="1">
          <mxGeometry y="54" width="103.7098759318961" height="24" as="geometry" />
        </mxCell>
        <mxCell id="hk54LcSmm6NopDitDCXq-53" value="string" style="shape=partialRectangle;top=0;right=0;bottom=0;part=1;resizeHeight=0;align=left;verticalAlign=top;spacingLeft=4;spacingRight=4;overflow=hidden;rotatable=0;points=[[0,0.5],[1,0.5]];portConstraint=eastwest;whiteSpace=wrap;swimlaneFillColor=#ffffff;whiteSpace=wrap;fontSize=13;fillColor=none;strokeOpacity=100;fillOpacity=100;whiteSpace=wrap;spacing=0;strokeColor=#333333;rounded=1;absoluteArcSize=1;arcSize=7.5;strokeWidth=0.8;" parent="hk54LcSmm6NopDitDCXq-49" vertex="1">
          <mxGeometry x="103.7098759318961" y="54" width="106.2901240681039" height="24" as="geometry" />
        </mxCell>
        <mxCell id="hk54LcSmm6NopDitDCXq-54" value="discriminator" style="strokeColor=none;part=1;resizeHeight=0;align=left;verticalAlign=top;spacingLeft=4;spacingRight=4;overflow=hidden;rotatable=0;points=[[0,0.5],[1,0.5]];portConstraint=eastwest;whiteSpace=wrap;swimlaneFillColor=#ffffff;whiteSpace=wrap;fontSize=13;fontColor=#333333;fillColor=none;strokeOpacity=100;fillOpacity=100;whiteSpace=wrap;spacing=0;rounded=1;absoluteArcSize=1;arcSize=7.5;strokeWidth=0.8;" parent="hk54LcSmm6NopDitDCXq-49" vertex="1">
          <mxGeometry y="78" width="103.7098759318961" height="24" as="geometry" />
        </mxCell>
        <mxCell id="hk54LcSmm6NopDitDCXq-55" value="string" style="shape=partialRectangle;top=0;right=0;bottom=0;part=1;resizeHeight=0;align=left;verticalAlign=top;spacingLeft=4;spacingRight=4;overflow=hidden;rotatable=0;points=[[0,0.5],[1,0.5]];portConstraint=eastwest;whiteSpace=wrap;swimlaneFillColor=#ffffff;whiteSpace=wrap;fontSize=13;fillColor=none;strokeOpacity=100;fillOpacity=100;whiteSpace=wrap;spacing=0;strokeColor=#333333;rounded=1;absoluteArcSize=1;arcSize=7.5;strokeWidth=0.8;" parent="hk54LcSmm6NopDitDCXq-49" vertex="1">
          <mxGeometry x="103.7098759318961" y="78" width="106.2901240681039" height="24" as="geometry" />
        </mxCell>
        <mxCell id="hk54LcSmm6NopDitDCXq-56" value="date_changed" style="strokeColor=none;part=1;resizeHeight=0;align=left;verticalAlign=top;spacingLeft=4;spacingRight=4;overflow=hidden;rotatable=0;points=[[0,0.5],[1,0.5]];portConstraint=eastwest;whiteSpace=wrap;swimlaneFillColor=#ffffff;whiteSpace=wrap;fontSize=13;fillColor=none;strokeOpacity=100;fillOpacity=100;whiteSpace=wrap;spacing=0;rounded=1;absoluteArcSize=1;arcSize=7.5;strokeWidth=0.8;" parent="hk54LcSmm6NopDitDCXq-49" vertex="1">
          <mxGeometry y="102" width="103.7098759318961" height="24" as="geometry" />
        </mxCell>
        <mxCell id="hk54LcSmm6NopDitDCXq-57" value="datetime" style="shape=partialRectangle;top=0;right=0;bottom=0;part=1;resizeHeight=0;align=left;verticalAlign=top;spacingLeft=4;spacingRight=4;overflow=hidden;rotatable=0;points=[[0,0.5],[1,0.5]];portConstraint=eastwest;whiteSpace=wrap;swimlaneFillColor=#ffffff;whiteSpace=wrap;fontSize=13;fillColor=none;strokeOpacity=100;fillOpacity=100;whiteSpace=wrap;spacing=0;strokeColor=#333333;rounded=1;absoluteArcSize=1;arcSize=7.5;strokeWidth=0.8;" parent="hk54LcSmm6NopDitDCXq-49" vertex="1">
          <mxGeometry x="103.7098759318961" y="102" width="106.2901240681039" height="24" as="geometry" />
        </mxCell>
        <mxCell id="hk54LcSmm6NopDitDCXq-58" value="user_id" style="strokeColor=none;part=1;resizeHeight=0;align=left;verticalAlign=top;spacingLeft=4;spacingRight=4;overflow=hidden;rotatable=0;points=[[0,0.5],[1,0.5]];portConstraint=eastwest;whiteSpace=wrap;swimlaneFillColor=#ffffff;whiteSpace=wrap;fontSize=13;fillColor=none;strokeOpacity=100;fillOpacity=100;whiteSpace=wrap;spacing=0;rounded=1;absoluteArcSize=1;arcSize=7.5;strokeWidth=0.8;" parent="hk54LcSmm6NopDitDCXq-49" vertex="1">
          <mxGeometry y="126" width="103.7098759318961" height="24" as="geometry" />
        </mxCell>
        <mxCell id="hk54LcSmm6NopDitDCXq-59" value="string" style="shape=partialRectangle;top=0;right=0;bottom=0;part=1;resizeHeight=0;align=left;verticalAlign=top;spacingLeft=4;spacingRight=4;overflow=hidden;rotatable=0;points=[[0,0.5],[1,0.5]];portConstraint=eastwest;whiteSpace=wrap;swimlaneFillColor=#ffffff;whiteSpace=wrap;fontSize=13;fillColor=none;strokeOpacity=100;fillOpacity=100;whiteSpace=wrap;spacing=0;strokeColor=#333333;rounded=1;absoluteArcSize=1;arcSize=7.5;strokeWidth=0.8;" parent="hk54LcSmm6NopDitDCXq-49" vertex="1">
          <mxGeometry x="103.7098759318961" y="126" width="106.2901240681039" height="24" as="geometry" />
        </mxCell>
        <mxCell id="hk54LcSmm6NopDitDCXq-60" value="user" style="html=1;overflow=block;blockSpacing=1;whiteSpace=wrap;swimlane;resizeParent=1;resizeParentMax=0;resizeLast=0;collapsible=0;marginBottom=0;fontStyle=0;swimlaneFillColor=#ffffff;startSize=30;whiteSpace=wrap;fontSize=13;fontColor=#333333;align=center;fillColor=#e0e0e0;whiteSpace=wrap;spacing=0;strokeColor=#333333;strokeOpacity=100;fillOpacity=100;rounded=1;absoluteArcSize=1;arcSize=7.5;strokeWidth=0.8;" parent="1" vertex="1">
          <mxGeometry x="480" y="555" width="210" height="78" as="geometry" />
        </mxCell>
        <mxCell id="hk54LcSmm6NopDitDCXq-61" value="user_id" style="strokeColor=none;part=1;resizeHeight=0;align=left;verticalAlign=top;spacingLeft=4;spacingRight=4;overflow=hidden;rotatable=0;points=[[0,0.5],[1,0.5]];portConstraint=eastwest;whiteSpace=wrap;swimlaneFillColor=#ffffff;whiteSpace=wrap;fontSize=13;fontColor=#333333;fillColor=none;strokeOpacity=100;fillOpacity=100;whiteSpace=wrap;spacing=0;rounded=1;absoluteArcSize=1;arcSize=7.5;strokeWidth=0.8;" parent="hk54LcSmm6NopDitDCXq-60" vertex="1">
          <mxGeometry y="30" width="103.7098759318961" height="24" as="geometry" />
        </mxCell>
        <mxCell id="hk54LcSmm6NopDitDCXq-62" value="string" style="shape=partialRectangle;top=0;right=0;bottom=0;part=1;resizeHeight=0;align=left;verticalAlign=top;spacingLeft=4;spacingRight=4;overflow=hidden;rotatable=0;points=[[0,0.5],[1,0.5]];portConstraint=eastwest;whiteSpace=wrap;swimlaneFillColor=#ffffff;whiteSpace=wrap;fontSize=13;fillColor=none;strokeOpacity=100;fillOpacity=100;whiteSpace=wrap;spacing=0;strokeColor=#333333;rounded=1;absoluteArcSize=1;arcSize=7.5;strokeWidth=0.8;" parent="hk54LcSmm6NopDitDCXq-60" vertex="1">
          <mxGeometry x="103.7098759318961" y="30" width="106.2901240681039" height="24" as="geometry" />
        </mxCell>
        <mxCell id="hk54LcSmm6NopDitDCXq-63" value="identity_id" style="strokeColor=none;part=1;resizeHeight=0;align=left;verticalAlign=top;spacingLeft=4;spacingRight=4;overflow=hidden;rotatable=0;points=[[0,0.5],[1,0.5]];portConstraint=eastwest;whiteSpace=wrap;swimlaneFillColor=#ffffff;whiteSpace=wrap;fontSize=13;fillColor=none;strokeOpacity=100;fillOpacity=100;whiteSpace=wrap;spacing=0;rounded=1;absoluteArcSize=1;arcSize=7.5;strokeWidth=0.8;" parent="hk54LcSmm6NopDitDCXq-60" vertex="1">
          <mxGeometry y="54" width="103.7098759318961" height="24" as="geometry" />
        </mxCell>
        <mxCell id="hk54LcSmm6NopDitDCXq-64" value="string" style="shape=partialRectangle;top=0;right=0;bottom=0;part=1;resizeHeight=0;align=left;verticalAlign=top;spacingLeft=4;spacingRight=4;overflow=hidden;rotatable=0;points=[[0,0.5],[1,0.5]];portConstraint=eastwest;whiteSpace=wrap;swimlaneFillColor=#ffffff;whiteSpace=wrap;fontSize=13;fillColor=none;strokeOpacity=100;fillOpacity=100;whiteSpace=wrap;spacing=0;strokeColor=#333333;rounded=1;absoluteArcSize=1;arcSize=7.5;strokeWidth=0.8;" parent="hk54LcSmm6NopDitDCXq-60" vertex="1">
          <mxGeometry x="103.7098759318961" y="54" width="106.2901240681039" height="24" as="geometry" />
        </mxCell>
        <mxCell id="hk54LcSmm6NopDitDCXq-65" value="Nicknames" style="html=1;overflow=block;blockSpacing=1;whiteSpace=wrap;swimlane;resizeParent=1;resizeParentMax=0;resizeLast=0;collapsible=0;marginBottom=0;fontStyle=0;swimlaneFillColor=#ffffff;startSize=30;whiteSpace=wrap;fontSize=13;align=center;fillColor=#f8cecc;whiteSpace=wrap;spacing=0;strokeColor=#b85450;strokeOpacity=100;fillOpacity=100;rounded=1;absoluteArcSize=1;arcSize=7.5;strokeWidth=0.8;" parent="1" vertex="1">
          <mxGeometry x="30" y="729" width="210" height="126" as="geometry" />
        </mxCell>
        <mxCell id="hk54LcSmm6NopDitDCXq-66" value="nickname_id" style="strokeColor=none;part=1;resizeHeight=0;align=left;verticalAlign=top;spacingLeft=4;spacingRight=4;overflow=hidden;rotatable=0;points=[[0,0.5],[1,0.5]];portConstraint=eastwest;whiteSpace=wrap;swimlaneFillColor=#ffffff;whiteSpace=wrap;fontSize=13;fontColor=#333333;fillColor=none;strokeOpacity=100;fillOpacity=100;whiteSpace=wrap;spacing=0;rounded=1;absoluteArcSize=1;arcSize=7.5;strokeWidth=0.8;" parent="hk54LcSmm6NopDitDCXq-65" vertex="1">
          <mxGeometry y="30" width="103.7098759318961" height="24" as="geometry" />
        </mxCell>
        <mxCell id="hk54LcSmm6NopDitDCXq-67" value="string" style="shape=partialRectangle;top=0;right=0;bottom=0;part=1;resizeHeight=0;align=left;verticalAlign=top;spacingLeft=4;spacingRight=4;overflow=hidden;rotatable=0;points=[[0,0.5],[1,0.5]];portConstraint=eastwest;whiteSpace=wrap;swimlaneFillColor=#ffffff;whiteSpace=wrap;fontSize=13;fillColor=none;strokeOpacity=100;fillOpacity=100;whiteSpace=wrap;spacing=0;strokeColor=#333333;rounded=1;absoluteArcSize=1;arcSize=7.5;strokeWidth=0.8;" parent="hk54LcSmm6NopDitDCXq-65" vertex="1">
          <mxGeometry x="103.7098759318961" y="30" width="106.2901240681039" height="24" as="geometry" />
        </mxCell>
        <mxCell id="hk54LcSmm6NopDitDCXq-68" value="nickname" style="strokeColor=none;part=1;resizeHeight=0;align=left;verticalAlign=top;spacingLeft=4;spacingRight=4;overflow=hidden;rotatable=0;points=[[0,0.5],[1,0.5]];portConstraint=eastwest;whiteSpace=wrap;swimlaneFillColor=#ffffff;whiteSpace=wrap;fontSize=13;fontColor=#333333;fillColor=none;strokeOpacity=100;fillOpacity=100;whiteSpace=wrap;spacing=0;rounded=1;absoluteArcSize=1;arcSize=7.5;strokeWidth=0.8;" parent="hk54LcSmm6NopDitDCXq-65" vertex="1">
          <mxGeometry y="54" width="103.7098759318961" height="24" as="geometry" />
        </mxCell>
        <mxCell id="hk54LcSmm6NopDitDCXq-69" value="string" style="shape=partialRectangle;top=0;right=0;bottom=0;part=1;resizeHeight=0;align=left;verticalAlign=top;spacingLeft=4;spacingRight=4;overflow=hidden;rotatable=0;points=[[0,0.5],[1,0.5]];portConstraint=eastwest;whiteSpace=wrap;swimlaneFillColor=#ffffff;whiteSpace=wrap;fontSize=13;fillColor=none;strokeOpacity=100;fillOpacity=100;whiteSpace=wrap;spacing=0;strokeColor=#333333;rounded=1;absoluteArcSize=1;arcSize=7.5;strokeWidth=0.8;" parent="hk54LcSmm6NopDitDCXq-65" vertex="1">
          <mxGeometry x="103.7098759318961" y="54" width="106.2901240681039" height="24" as="geometry" />
        </mxCell>
        <mxCell id="hk54LcSmm6NopDitDCXq-70" value="date_changed" style="strokeColor=none;part=1;resizeHeight=0;align=left;verticalAlign=top;spacingLeft=4;spacingRight=4;overflow=hidden;rotatable=0;points=[[0,0.5],[1,0.5]];portConstraint=eastwest;whiteSpace=wrap;swimlaneFillColor=#ffffff;whiteSpace=wrap;fontSize=13;fillColor=none;strokeOpacity=100;fillOpacity=100;whiteSpace=wrap;spacing=0;rounded=1;absoluteArcSize=1;arcSize=7.5;strokeWidth=0.8;" parent="hk54LcSmm6NopDitDCXq-65" vertex="1">
          <mxGeometry y="78" width="103.7098759318961" height="24" as="geometry" />
        </mxCell>
        <mxCell id="hk54LcSmm6NopDitDCXq-71" value="datetime" style="shape=partialRectangle;top=0;right=0;bottom=0;part=1;resizeHeight=0;align=left;verticalAlign=top;spacingLeft=4;spacingRight=4;overflow=hidden;rotatable=0;points=[[0,0.5],[1,0.5]];portConstraint=eastwest;whiteSpace=wrap;swimlaneFillColor=#ffffff;whiteSpace=wrap;fontSize=13;fillColor=none;strokeOpacity=100;fillOpacity=100;whiteSpace=wrap;spacing=0;strokeColor=#333333;rounded=1;absoluteArcSize=1;arcSize=7.5;strokeWidth=0.8;" parent="hk54LcSmm6NopDitDCXq-65" vertex="1">
          <mxGeometry x="103.7098759318961" y="78" width="106.2901240681039" height="24" as="geometry" />
        </mxCell>
        <mxCell id="hk54LcSmm6NopDitDCXq-72" value="user_id" style="strokeColor=none;part=1;resizeHeight=0;align=left;verticalAlign=top;spacingLeft=4;spacingRight=4;overflow=hidden;rotatable=0;points=[[0,0.5],[1,0.5]];portConstraint=eastwest;whiteSpace=wrap;swimlaneFillColor=#ffffff;whiteSpace=wrap;fontSize=13;fillColor=none;strokeOpacity=100;fillOpacity=100;whiteSpace=wrap;spacing=0;rounded=1;absoluteArcSize=1;arcSize=7.5;strokeWidth=0.8;" parent="hk54LcSmm6NopDitDCXq-65" vertex="1">
          <mxGeometry y="102" width="103.7098759318961" height="24" as="geometry" />
        </mxCell>
        <mxCell id="hk54LcSmm6NopDitDCXq-73" value="string" style="shape=partialRectangle;top=0;right=0;bottom=0;part=1;resizeHeight=0;align=left;verticalAlign=top;spacingLeft=4;spacingRight=4;overflow=hidden;rotatable=0;points=[[0,0.5],[1,0.5]];portConstraint=eastwest;whiteSpace=wrap;swimlaneFillColor=#ffffff;whiteSpace=wrap;fontSize=13;fillColor=none;strokeOpacity=100;fillOpacity=100;whiteSpace=wrap;spacing=0;strokeColor=#333333;rounded=1;absoluteArcSize=1;arcSize=7.5;strokeWidth=0.8;" parent="hk54LcSmm6NopDitDCXq-65" vertex="1">
          <mxGeometry x="103.7098759318961" y="102" width="106.2901240681039" height="24" as="geometry" />
        </mxCell>
        <UserObject label="" lucidchartObjectId="LHTU..q9b8V1" id="hk54LcSmm6NopDitDCXq-74">
          <mxCell style="html=1;jettySize=18;whiteSpace=wrap;fontSize=13;strokeColor=#333333;strokeOpacity=100;strokeWidth=0.8;rounded=1;arcSize=24;edgeStyle=orthogonalEdgeStyle;startArrow=ERone;startSize=16;;endArrow=ERmany;endSize=10;;exitX=-0.002;exitY=0.538;exitPerimeter=0;entryX=1.002;entryY=0.905;entryPerimeter=0;" parent="1" source="hk54LcSmm6NopDitDCXq-60" target="hk54LcSmm6NopDitDCXq-65" edge="1">
            <mxGeometry width="100" height="100" relative="1" as="geometry">
              <Array as="points" />
            </mxGeometry>
          </mxCell>
        </UserObject>
        <mxCell id="hk54LcSmm6NopDitDCXq-75" value="guild_member" style="html=1;overflow=block;blockSpacing=1;whiteSpace=wrap;swimlane;resizeParent=1;resizeParentMax=0;resizeLast=0;collapsible=0;marginBottom=0;fontStyle=0;swimlaneFillColor=#ffffff;startSize=30;whiteSpace=wrap;fontSize=13;fontColor=#333333;align=center;fillColor=#e0e0e0;whiteSpace=wrap;spacing=0;strokeColor=#333333;strokeOpacity=100;fillOpacity=100;rounded=1;absoluteArcSize=1;arcSize=7.5;strokeWidth=0.8;" parent="1" vertex="1">
          <mxGeometry x="30" y="555" width="210" height="78" as="geometry" />
        </mxCell>
        <mxCell id="hk54LcSmm6NopDitDCXq-76" value="user_id" style="strokeColor=none;part=1;resizeHeight=0;align=left;verticalAlign=top;spacingLeft=4;spacingRight=4;overflow=hidden;rotatable=0;points=[[0,0.5],[1,0.5]];portConstraint=eastwest;whiteSpace=wrap;swimlaneFillColor=#ffffff;whiteSpace=wrap;fontSize=13;fontColor=#333333;fillColor=none;strokeOpacity=100;fillOpacity=100;whiteSpace=wrap;spacing=0;rounded=1;absoluteArcSize=1;arcSize=7.5;strokeWidth=0.8;" parent="hk54LcSmm6NopDitDCXq-75" vertex="1">
          <mxGeometry y="30" width="108.54754015080852" height="24" as="geometry" />
        </mxCell>
        <mxCell id="hk54LcSmm6NopDitDCXq-77" value="string" style="shape=partialRectangle;top=0;right=0;bottom=0;part=1;resizeHeight=0;align=left;verticalAlign=top;spacingLeft=4;spacingRight=4;overflow=hidden;rotatable=0;points=[[0,0.5],[1,0.5]];portConstraint=eastwest;whiteSpace=wrap;swimlaneFillColor=#ffffff;whiteSpace=wrap;fontSize=13;fillColor=none;strokeOpacity=100;fillOpacity=100;whiteSpace=wrap;spacing=0;strokeColor=#333333;rounded=1;absoluteArcSize=1;arcSize=7.5;strokeWidth=0.8;" parent="hk54LcSmm6NopDitDCXq-75" vertex="1">
          <mxGeometry x="108.54754015080852" y="30" width="101.45245984919148" height="24" as="geometry" />
        </mxCell>
        <mxCell id="hk54LcSmm6NopDitDCXq-78" value="guild_id" style="strokeColor=none;part=1;resizeHeight=0;align=left;verticalAlign=top;spacingLeft=4;spacingRight=4;overflow=hidden;rotatable=0;points=[[0,0.5],[1,0.5]];portConstraint=eastwest;whiteSpace=wrap;swimlaneFillColor=#ffffff;whiteSpace=wrap;fontSize=13;fontColor=#333333;fillColor=none;strokeOpacity=100;fillOpacity=100;whiteSpace=wrap;spacing=0;rounded=1;absoluteArcSize=1;arcSize=7.5;strokeWidth=0.8;" parent="hk54LcSmm6NopDitDCXq-75" vertex="1">
          <mxGeometry y="54" width="108.54754015080852" height="24" as="geometry" />
        </mxCell>
        <mxCell id="hk54LcSmm6NopDitDCXq-79" value="string" style="shape=partialRectangle;top=0;right=0;bottom=0;part=1;resizeHeight=0;align=left;verticalAlign=top;spacingLeft=4;spacingRight=4;overflow=hidden;rotatable=0;points=[[0,0.5],[1,0.5]];portConstraint=eastwest;whiteSpace=wrap;swimlaneFillColor=#ffffff;whiteSpace=wrap;fontSize=13;fillColor=none;strokeOpacity=100;fillOpacity=100;whiteSpace=wrap;spacing=0;strokeColor=#333333;rounded=1;absoluteArcSize=1;arcSize=7.5;strokeWidth=0.8;" parent="hk54LcSmm6NopDitDCXq-75" vertex="1">
          <mxGeometry x="108.54754015080852" y="54" width="101.45245984919148" height="24" as="geometry" />
        </mxCell>
        <UserObject label="" lucidchartObjectId="LHTUuLhNsGV_" id="hk54LcSmm6NopDitDCXq-80">
          <mxCell style="html=1;jettySize=18;whiteSpace=wrap;fontSize=13;strokeColor=#333333;strokeOpacity=100;strokeWidth=0.8;rounded=1;arcSize=24;edgeStyle=orthogonalEdgeStyle;startArrow=ERone;startSize=16;;endArrow=ERmany;endSize=10;;exitX=-0.002;exitY=0.28;exitPerimeter=0;entryX=-0.002;entryY=0.846;entryPerimeter=0;" parent="1" source="hk54LcSmm6NopDitDCXq-12" target="hk54LcSmm6NopDitDCXq-75" edge="1">
            <mxGeometry width="100" height="100" relative="1" as="geometry">
              <Array as="points" />
            </mxGeometry>
          </mxCell>
        </UserObject>
        <UserObject label="" lucidchartObjectId="LHTUw85~QlAJ" id="hk54LcSmm6NopDitDCXq-81">
          <mxCell style="html=1;jettySize=18;whiteSpace=wrap;fontSize=13;strokeColor=#333333;strokeOpacity=100;strokeWidth=0.8;rounded=1;arcSize=24;edgeStyle=orthogonalEdgeStyle;startArrow=ERone;startSize=16;;endArrow=ERmany;endSize=10;;exitX=-0.002;exitY=0.538;exitPerimeter=0;entryX=1.002;entryY=0.538;entryPerimeter=0;" parent="1" source="hk54LcSmm6NopDitDCXq-60" target="hk54LcSmm6NopDitDCXq-75" edge="1">
            <mxGeometry width="100" height="100" relative="1" as="geometry">
              <Array as="points" />
            </mxGeometry>
          </mxCell>
        </UserObject>
        <UserObject label="" lucidchartObjectId="LHTUaEfxrCHb" id="hk54LcSmm6NopDitDCXq-82">
          <mxCell style="html=1;jettySize=18;whiteSpace=wrap;fontSize=13;strokeColor=#333333;strokeOpacity=100;strokeWidth=0.8;rounded=1;arcSize=24;edgeStyle=orthogonalEdgeStyle;startArrow=ERone;startSize=16;;endArrow=ERmany;endSize=10;;exitX=1.002;exitY=0.538;exitPerimeter=0;entryX=-0.002;entryY=0.92;entryPerimeter=0;" parent="1" source="hk54LcSmm6NopDitDCXq-60" target="hk54LcSmm6NopDitDCXq-49" edge="1">
            <mxGeometry width="100" height="100" relative="1" as="geometry">
              <Array as="points" />
            </mxGeometry>
          </mxCell>
        </UserObject>
        <mxCell id="hk54LcSmm6NopDitDCXq-83" value="role" style="html=1;overflow=block;blockSpacing=1;whiteSpace=wrap;swimlane;resizeParent=1;resizeParentMax=0;resizeLast=0;collapsible=0;marginBottom=0;fontStyle=0;swimlaneFillColor=#ffffff;startSize=30;whiteSpace=wrap;fontSize=13;fontColor=#333333;align=center;fillColor=#e0e0e0;whiteSpace=wrap;spacing=0;strokeColor=#333333;strokeOpacity=100;fillOpacity=100;rounded=1;absoluteArcSize=1;arcSize=7.5;strokeWidth=0.8;" parent="1" vertex="1">
          <mxGeometry x="700" y="230" width="210" height="102" as="geometry" />
        </mxCell>
        <mxCell id="hk54LcSmm6NopDitDCXq-84" value="role_id" style="strokeColor=none;part=1;resizeHeight=0;align=left;verticalAlign=top;spacingLeft=4;spacingRight=4;overflow=hidden;rotatable=0;points=[[0,0.5],[1,0.5]];portConstraint=eastwest;whiteSpace=wrap;swimlaneFillColor=#ffffff;whiteSpace=wrap;fontSize=13;fontColor=#333333;fillColor=none;strokeOpacity=100;fillOpacity=100;whiteSpace=wrap;spacing=0;rounded=1;absoluteArcSize=1;arcSize=7.5;strokeWidth=0.8;" parent="hk54LcSmm6NopDitDCXq-83" vertex="1">
          <mxGeometry y="30" width="103.7098759318961" height="24" as="geometry" />
        </mxCell>
        <mxCell id="hk54LcSmm6NopDitDCXq-85" value="string" style="shape=partialRectangle;top=0;right=0;bottom=0;part=1;resizeHeight=0;align=left;verticalAlign=top;spacingLeft=4;spacingRight=4;overflow=hidden;rotatable=0;points=[[0,0.5],[1,0.5]];portConstraint=eastwest;whiteSpace=wrap;swimlaneFillColor=#ffffff;whiteSpace=wrap;fontSize=13;fontColor=#333333;fillColor=none;strokeOpacity=100;fillOpacity=100;whiteSpace=wrap;spacing=0;strokeColor=#333333;rounded=1;absoluteArcSize=1;arcSize=7.5;strokeWidth=0.8;" parent="hk54LcSmm6NopDitDCXq-83" vertex="1">
          <mxGeometry x="103.7098759318961" y="30" width="106.2901240681039" height="24" as="geometry" />
        </mxCell>
        <mxCell id="hk54LcSmm6NopDitDCXq-86" value="role_emote" style="strokeColor=none;part=1;resizeHeight=0;align=left;verticalAlign=top;spacingLeft=4;spacingRight=4;overflow=hidden;rotatable=0;points=[[0,0.5],[1,0.5]];portConstraint=eastwest;whiteSpace=wrap;swimlaneFillColor=#ffffff;whiteSpace=wrap;fontSize=13;fillColor=none;strokeOpacity=100;fillOpacity=100;whiteSpace=wrap;spacing=0;rounded=1;absoluteArcSize=1;arcSize=7.5;strokeWidth=0.8;" parent="hk54LcSmm6NopDitDCXq-83" vertex="1">
          <mxGeometry y="54" width="103.7098759318961" height="24" as="geometry" />
        </mxCell>
        <mxCell id="hk54LcSmm6NopDitDCXq-87" value="string" style="shape=partialRectangle;top=0;right=0;bottom=0;part=1;resizeHeight=0;align=left;verticalAlign=top;spacingLeft=4;spacingRight=4;overflow=hidden;rotatable=0;points=[[0,0.5],[1,0.5]];portConstraint=eastwest;whiteSpace=wrap;swimlaneFillColor=#ffffff;whiteSpace=wrap;fontSize=13;fontColor=#333333;fillColor=none;strokeOpacity=100;fillOpacity=100;whiteSpace=wrap;spacing=0;strokeColor=#333333;rounded=1;absoluteArcSize=1;arcSize=7.5;strokeWidth=0.8;" parent="hk54LcSmm6NopDitDCXq-83" vertex="1">
          <mxGeometry x="103.7098759318961" y="54" width="106.2901240681039" height="24" as="geometry" />
        </mxCell>
        <mxCell id="hk54LcSmm6NopDitDCXq-88" value="role_menu_id" style="strokeColor=none;part=1;resizeHeight=0;align=left;verticalAlign=top;spacingLeft=4;spacingRight=4;overflow=hidden;rotatable=0;points=[[0,0.5],[1,0.5]];portConstraint=eastwest;whiteSpace=wrap;swimlaneFillColor=#ffffff;whiteSpace=wrap;fontSize=13;fontColor=#333333;fillColor=none;strokeOpacity=100;fillOpacity=100;whiteSpace=wrap;spacing=0;rounded=1;absoluteArcSize=1;arcSize=7.5;strokeWidth=0.8;" parent="hk54LcSmm6NopDitDCXq-83" vertex="1">
          <mxGeometry y="78" width="103.7098759318961" height="24" as="geometry" />
        </mxCell>
        <mxCell id="hk54LcSmm6NopDitDCXq-89" value="string" style="shape=partialRectangle;top=0;right=0;bottom=0;part=1;resizeHeight=0;align=left;verticalAlign=top;spacingLeft=4;spacingRight=4;overflow=hidden;rotatable=0;points=[[0,0.5],[1,0.5]];portConstraint=eastwest;whiteSpace=wrap;swimlaneFillColor=#ffffff;whiteSpace=wrap;fontSize=13;fontColor=#333333;fillColor=none;strokeOpacity=100;fillOpacity=100;whiteSpace=wrap;spacing=0;strokeColor=#333333;rounded=1;absoluteArcSize=1;arcSize=7.5;strokeWidth=0.8;" parent="hk54LcSmm6NopDitDCXq-83" vertex="1">
          <mxGeometry x="103.7098759318961" y="78" width="106.2901240681039" height="24" as="geometry" />
        </mxCell>
        <mxCell id="hk54LcSmm6NopDitDCXq-90" value="category" style="html=1;overflow=block;blockSpacing=1;whiteSpace=wrap;swimlane;resizeParent=1;resizeParentMax=0;resizeLast=0;collapsible=0;marginBottom=0;fontStyle=0;swimlaneFillColor=#ffffff;startSize=30;whiteSpace=wrap;fontSize=13;fontColor=#333333;align=center;fillColor=#e0e0e0;whiteSpace=wrap;spacing=0;strokeColor=#333333;strokeOpacity=100;fillOpacity=100;rounded=1;absoluteArcSize=1;arcSize=7.5;strokeWidth=0.8;" parent="1" vertex="1">
          <mxGeometry x="795" y="-30" width="210" height="102" as="geometry" />
        </mxCell>
        <mxCell id="hk54LcSmm6NopDitDCXq-91" value="category_id" style="strokeColor=none;part=1;resizeHeight=0;align=left;verticalAlign=top;spacingLeft=4;spacingRight=4;overflow=hidden;rotatable=0;points=[[0,0.5],[1,0.5]];portConstraint=eastwest;whiteSpace=wrap;swimlaneFillColor=#ffffff;whiteSpace=wrap;fontSize=13;fontColor=#333333;fillColor=none;strokeOpacity=100;fillOpacity=100;whiteSpace=wrap;spacing=0;rounded=1;absoluteArcSize=1;arcSize=7.5;strokeWidth=0.8;" parent="hk54LcSmm6NopDitDCXq-90" vertex="1">
          <mxGeometry y="30" width="129.62500000000088" height="24" as="geometry" />
        </mxCell>
        <mxCell id="hk54LcSmm6NopDitDCXq-92" value="string" style="shape=partialRectangle;top=0;right=0;bottom=0;part=1;resizeHeight=0;align=left;verticalAlign=top;spacingLeft=4;spacingRight=4;overflow=hidden;rotatable=0;points=[[0,0.5],[1,0.5]];portConstraint=eastwest;whiteSpace=wrap;swimlaneFillColor=#ffffff;whiteSpace=wrap;fontSize=13;fontColor=#333333;fillColor=none;strokeOpacity=100;fillOpacity=100;whiteSpace=wrap;spacing=0;strokeColor=#333333;rounded=1;absoluteArcSize=1;arcSize=7.5;strokeWidth=0.8;" parent="hk54LcSmm6NopDitDCXq-90" vertex="1">
          <mxGeometry x="129.62500000000088" y="30" width="80.37499999999912" height="24" as="geometry" />
        </mxCell>
        <mxCell id="hk54LcSmm6NopDitDCXq-93" value="category_set_id" style="strokeColor=none;part=1;resizeHeight=0;align=left;verticalAlign=top;spacingLeft=4;spacingRight=4;overflow=hidden;rotatable=0;points=[[0,0.5],[1,0.5]];portConstraint=eastwest;whiteSpace=wrap;swimlaneFillColor=#ffffff;whiteSpace=wrap;fontSize=13;fontColor=#333333;fillColor=none;strokeOpacity=100;fillOpacity=100;whiteSpace=wrap;spacing=0;rounded=1;absoluteArcSize=1;arcSize=7.5;strokeWidth=0.8;" parent="hk54LcSmm6NopDitDCXq-90" vertex="1">
          <mxGeometry y="54" width="129.62500000000088" height="24" as="geometry" />
        </mxCell>
        <mxCell id="hk54LcSmm6NopDitDCXq-94" value="string" style="shape=partialRectangle;top=0;right=0;bottom=0;part=1;resizeHeight=0;align=left;verticalAlign=top;spacingLeft=4;spacingRight=4;overflow=hidden;rotatable=0;points=[[0,0.5],[1,0.5]];portConstraint=eastwest;whiteSpace=wrap;swimlaneFillColor=#ffffff;whiteSpace=wrap;fontSize=13;fontColor=#333333;fillColor=none;strokeOpacity=100;fillOpacity=100;whiteSpace=wrap;spacing=0;strokeColor=#333333;rounded=1;absoluteArcSize=1;arcSize=7.5;strokeWidth=0.8;" parent="hk54LcSmm6NopDitDCXq-90" vertex="1">
          <mxGeometry x="129.62500000000088" y="54" width="80.37499999999912" height="24" as="geometry" />
        </mxCell>
        <mxCell id="hk54LcSmm6NopDitDCXq-95" value="category_position" style="strokeColor=none;part=1;resizeHeight=0;align=left;verticalAlign=top;spacingLeft=4;spacingRight=4;overflow=hidden;rotatable=0;points=[[0,0.5],[1,0.5]];portConstraint=eastwest;whiteSpace=wrap;swimlaneFillColor=#ffffff;whiteSpace=wrap;fontSize=13;fontColor=#333333;fillColor=none;strokeOpacity=100;fillOpacity=100;whiteSpace=wrap;spacing=0;rounded=1;absoluteArcSize=1;arcSize=7.5;strokeWidth=0.8;" parent="hk54LcSmm6NopDitDCXq-90" vertex="1">
          <mxGeometry y="78" width="129.62500000000088" height="24" as="geometry" />
        </mxCell>
        <mxCell id="hk54LcSmm6NopDitDCXq-96" value="string" style="shape=partialRectangle;top=0;right=0;bottom=0;part=1;resizeHeight=0;align=left;verticalAlign=top;spacingLeft=4;spacingRight=4;overflow=hidden;rotatable=0;points=[[0,0.5],[1,0.5]];portConstraint=eastwest;whiteSpace=wrap;swimlaneFillColor=#ffffff;whiteSpace=wrap;fontSize=13;fontColor=#333333;fillColor=none;strokeOpacity=100;fillOpacity=100;whiteSpace=wrap;spacing=0;strokeColor=#333333;rounded=1;absoluteArcSize=1;arcSize=7.5;strokeWidth=0.8;" parent="hk54LcSmm6NopDitDCXq-90" vertex="1">
          <mxGeometry x="129.62500000000088" y="78" width="80.37499999999912" height="24" as="geometry" />
        </mxCell>
        <UserObject label="" lucidchartObjectId="LMTUxVOucmml" id="hk54LcSmm6NopDitDCXq-97">
          <mxCell style="html=1;jettySize=18;whiteSpace=wrap;fontSize=13;strokeColor=#5E5E5E;strokeWidth=1.5;rounded=1;arcSize=12;edgeStyle=orthogonalEdgeStyle;startArrow=ERone;startSize=16;;endArrow=ERmany;endSize=10;;exitX=1.002;exitY=0.412;exitPerimeter=0;entryX=-0.002;entryY=0.647;entryPerimeter=0;" parent="1" source="hk54LcSmm6NopDitDCXq-23" target="hk54LcSmm6NopDitDCXq-90" edge="1">
            <mxGeometry width="100" height="100" relative="1" as="geometry">
              <Array as="points" />
            </mxGeometry>
          </mxCell>
        </UserObject>
        <UserObject label="" lucidchartObjectId="aNTUuIfZG7CC" id="hk54LcSmm6NopDitDCXq-98">
          <mxCell style="html=1;jettySize=18;whiteSpace=wrap;fontSize=13;strokeColor=#5E5E5E;strokeWidth=1.5;rounded=1;arcSize=12;edgeStyle=orthogonalEdgeStyle;startArrow=ERone;startSize=16;;endArrow=ERzeroToOne;endSize=10;;exitX=1.002;exitY=0.412;exitPerimeter=0;entryX=-0.002;entryY=0.92;entryPerimeter=0;" parent="1" source="hk54LcSmm6NopDitDCXq-83" target="hk54LcSmm6NopDitDCXq-1" edge="1">
            <mxGeometry width="100" height="100" relative="1" as="geometry">
              <Array as="points" />
            </mxGeometry>
          </mxCell>
        </UserObject>
        <mxCell id="hk54LcSmm6NopDitDCXq-99" value="role_to_permission" style="html=1;overflow=block;blockSpacing=1;whiteSpace=wrap;swimlane;resizeParent=1;resizeParentMax=0;resizeLast=0;collapsible=0;marginBottom=0;fontStyle=0;swimlaneFillColor=#ffffff;startSize=30;whiteSpace=wrap;fontSize=13;fontColor=#333333;align=center;fillColor=#e0e0e0;whiteSpace=wrap;spacing=0;strokeColor=#333333;strokeOpacity=100;fillOpacity=100;rounded=1;absoluteArcSize=1;arcSize=7.5;strokeWidth=0.8;" parent="1" vertex="1">
          <mxGeometry x="735" y="390" width="210" height="78" as="geometry" />
        </mxCell>
        <mxCell id="hk54LcSmm6NopDitDCXq-100" value="role_id" style="strokeColor=none;part=1;resizeHeight=0;align=left;verticalAlign=top;spacingLeft=4;spacingRight=4;overflow=hidden;rotatable=0;points=[[0,0.5],[1,0.5]];portConstraint=eastwest;whiteSpace=wrap;swimlaneFillColor=#ffffff;whiteSpace=wrap;fontSize=13;fontColor=#333333;fillColor=none;strokeOpacity=100;fillOpacity=100;whiteSpace=wrap;spacing=0;rounded=1;absoluteArcSize=1;arcSize=7.5;strokeWidth=0.8;" parent="hk54LcSmm6NopDitDCXq-99" vertex="1">
          <mxGeometry y="30" width="108.54754015080852" height="24" as="geometry" />
        </mxCell>
        <mxCell id="hk54LcSmm6NopDitDCXq-101" value="string" style="shape=partialRectangle;top=0;right=0;bottom=0;part=1;resizeHeight=0;align=left;verticalAlign=top;spacingLeft=4;spacingRight=4;overflow=hidden;rotatable=0;points=[[0,0.5],[1,0.5]];portConstraint=eastwest;whiteSpace=wrap;swimlaneFillColor=#ffffff;whiteSpace=wrap;fontSize=13;fontColor=#333333;fillColor=none;strokeOpacity=100;fillOpacity=100;whiteSpace=wrap;spacing=0;strokeColor=#333333;rounded=1;absoluteArcSize=1;arcSize=7.5;strokeWidth=0.8;" parent="hk54LcSmm6NopDitDCXq-99" vertex="1">
          <mxGeometry x="108.54754015080852" y="30" width="101.45245984919148" height="24" as="geometry" />
        </mxCell>
        <mxCell id="hk54LcSmm6NopDitDCXq-102" value="permission" style="strokeColor=none;part=1;resizeHeight=0;align=left;verticalAlign=top;spacingLeft=4;spacingRight=4;overflow=hidden;rotatable=0;points=[[0,0.5],[1,0.5]];portConstraint=eastwest;whiteSpace=wrap;swimlaneFillColor=#ffffff;whiteSpace=wrap;fontSize=13;fontColor=#333333;fillColor=none;strokeOpacity=100;fillOpacity=100;whiteSpace=wrap;spacing=0;rounded=1;absoluteArcSize=1;arcSize=7.5;strokeWidth=0.8;" parent="hk54LcSmm6NopDitDCXq-99" vertex="1">
          <mxGeometry y="54" width="108.54754015080852" height="24" as="geometry" />
        </mxCell>
        <mxCell id="hk54LcSmm6NopDitDCXq-103" value="string" style="shape=partialRectangle;top=0;right=0;bottom=0;part=1;resizeHeight=0;align=left;verticalAlign=top;spacingLeft=4;spacingRight=4;overflow=hidden;rotatable=0;points=[[0,0.5],[1,0.5]];portConstraint=eastwest;whiteSpace=wrap;swimlaneFillColor=#ffffff;whiteSpace=wrap;fontSize=13;fontColor=#333333;fillColor=none;strokeOpacity=100;fillOpacity=100;whiteSpace=wrap;spacing=0;strokeColor=#333333;rounded=1;absoluteArcSize=1;arcSize=7.5;strokeWidth=0.8;" parent="hk54LcSmm6NopDitDCXq-99" vertex="1">
          <mxGeometry x="108.54754015080852" y="54" width="101.45245984919148" height="24" as="geometry" />
        </mxCell>
        <UserObject label="" lucidchartObjectId="6MBW-GBSeTdj" id="hk54LcSmm6NopDitDCXq-104">
          <mxCell style="html=1;jettySize=18;whiteSpace=wrap;fontSize=13;strokeColor=#5E5E5E;strokeWidth=1.5;rounded=1;arcSize=12;edgeStyle=orthogonalEdgeStyle;startArrow=ERone;startSize=16;;endArrow=ERmany;endSize=10;;exitX=1.002;exitY=0.411;exitPerimeter=0;entryX=1.002;entryY=0.539;entryPerimeter=0;" parent="1" source="hk54LcSmm6NopDitDCXq-83" target="hk54LcSmm6NopDitDCXq-99" edge="1">
            <mxGeometry width="100" height="100" relative="1" as="geometry">
              <Array as="points">
                <mxPoint x="980" y="272" />
                <mxPoint x="980" y="432" />
              </Array>
            </mxGeometry>
          </mxCell>
        </UserObject>
        <mxCell id="hk54LcSmm6NopDitDCXq-105" value="bot_channel" style="html=1;overflow=block;blockSpacing=1;whiteSpace=wrap;swimlane;resizeParent=1;resizeParentMax=0;resizeLast=0;collapsible=0;marginBottom=0;fontStyle=0;swimlaneFillColor=#ffffff;startSize=30;whiteSpace=wrap;fontSize=13;fontColor=#333333;align=center;fillColor=#e0e0e0;whiteSpace=wrap;spacing=0;strokeColor=#333333;strokeOpacity=100;fillOpacity=100;rounded=1;absoluteArcSize=1;arcSize=7.5;strokeWidth=0.8;" parent="1" vertex="1">
          <mxGeometry x="320" y="-50" width="210" height="78" as="geometry" />
        </mxCell>
        <mxCell id="hk54LcSmm6NopDitDCXq-106" value="bot_channel_id" style="strokeColor=none;part=1;resizeHeight=0;align=left;verticalAlign=top;spacingLeft=4;spacingRight=4;overflow=hidden;rotatable=0;points=[[0,0.5],[1,0.5]];portConstraint=eastwest;whiteSpace=wrap;swimlaneFillColor=#ffffff;whiteSpace=wrap;fontSize=13;fontColor=#333333;fillColor=none;strokeOpacity=100;fillOpacity=100;whiteSpace=wrap;spacing=0;rounded=1;absoluteArcSize=1;arcSize=7.5;strokeWidth=0.8;" parent="hk54LcSmm6NopDitDCXq-105" vertex="1">
          <mxGeometry y="30" width="128.85039370079016" height="24" as="geometry" />
        </mxCell>
        <mxCell id="hk54LcSmm6NopDitDCXq-107" value="string" style="shape=partialRectangle;top=0;right=0;bottom=0;part=1;resizeHeight=0;align=left;verticalAlign=top;spacingLeft=4;spacingRight=4;overflow=hidden;rotatable=0;points=[[0,0.5],[1,0.5]];portConstraint=eastwest;whiteSpace=wrap;swimlaneFillColor=#ffffff;whiteSpace=wrap;fontSize=13;fontColor=#333333;fillColor=none;strokeOpacity=100;fillOpacity=100;whiteSpace=wrap;spacing=0;strokeColor=#333333;rounded=1;absoluteArcSize=1;arcSize=7.5;strokeWidth=0.8;" parent="hk54LcSmm6NopDitDCXq-105" vertex="1">
          <mxGeometry x="128.85039370079016" y="30" width="81.14960629920984" height="24" as="geometry" />
        </mxCell>
        <mxCell id="hk54LcSmm6NopDitDCXq-108" value="guild_id" style="strokeColor=none;part=1;resizeHeight=0;align=left;verticalAlign=top;spacingLeft=4;spacingRight=4;overflow=hidden;rotatable=0;points=[[0,0.5],[1,0.5]];portConstraint=eastwest;whiteSpace=wrap;swimlaneFillColor=#ffffff;whiteSpace=wrap;fontSize=13;fillColor=none;strokeOpacity=100;fillOpacity=100;whiteSpace=wrap;spacing=0;rounded=1;absoluteArcSize=1;arcSize=7.5;strokeWidth=0.8;" parent="hk54LcSmm6NopDitDCXq-105" vertex="1">
          <mxGeometry y="54" width="128.85039370079016" height="24" as="geometry" />
        </mxCell>
        <mxCell id="hk54LcSmm6NopDitDCXq-109" value="string" style="shape=partialRectangle;top=0;right=0;bottom=0;part=1;resizeHeight=0;align=left;verticalAlign=top;spacingLeft=4;spacingRight=4;overflow=hidden;rotatable=0;points=[[0,0.5],[1,0.5]];portConstraint=eastwest;whiteSpace=wrap;swimlaneFillColor=#ffffff;whiteSpace=wrap;fontSize=13;fillColor=none;strokeOpacity=100;fillOpacity=100;whiteSpace=wrap;spacing=0;strokeColor=#333333;rounded=1;absoluteArcSize=1;arcSize=7.5;strokeWidth=0.8;" parent="hk54LcSmm6NopDitDCXq-105" vertex="1">
          <mxGeometry x="128.85039370079016" y="54" width="81.14960629920984" height="24" as="geometry" />
        </mxCell>
        <UserObject label="" lucidchartObjectId="p-UW9KQ52Cuk" id="hk54LcSmm6NopDitDCXq-110">
          <mxCell style="html=1;jettySize=18;whiteSpace=wrap;fontSize=13;strokeColor=#5E5E5E;strokeWidth=1.5;rounded=1;arcSize=12;edgeStyle=orthogonalEdgeStyle;startArrow=ERone;startSize=16;;endArrow=ERmany;endSize=10;;exitX=1.002;exitY=0.28;exitPerimeter=0;entryX=-0.002;entryY=0.846;entryPerimeter=0;" parent="1" source="hk54LcSmm6NopDitDCXq-12" target="hk54LcSmm6NopDitDCXq-105" edge="1">
            <mxGeometry width="100" height="100" relative="1" as="geometry">
              <Array as="points">
                <mxPoint x="230" y="159" />
                <mxPoint x="230" y="16" />
              </Array>
            </mxGeometry>
          </mxCell>
        </UserObject>
        <mxCell id="hk54LcSmm6NopDitDCXq-111" value="identity" style="html=1;overflow=block;blockSpacing=1;whiteSpace=wrap;swimlane;resizeParent=1;resizeParentMax=0;resizeLast=0;collapsible=0;marginBottom=0;fontStyle=0;swimlaneFillColor=#ffffff;startSize=30;whiteSpace=wrap;fontSize=13;fontColor=#333333;align=center;fillColor=#e0e0e0;whiteSpace=wrap;spacing=0;strokeColor=#333333;strokeOpacity=100;fillOpacity=100;rounded=1;absoluteArcSize=1;arcSize=7.5;strokeWidth=0.8;" parent="1" vertex="1">
          <mxGeometry x="480" y="729" width="210" height="174" as="geometry" />
        </mxCell>
        <mxCell id="hk54LcSmm6NopDitDCXq-112" value="identity_id" style="strokeColor=none;part=1;resizeHeight=0;align=left;verticalAlign=top;spacingLeft=4;spacingRight=4;overflow=hidden;rotatable=0;points=[[0,0.5],[1,0.5]];portConstraint=eastwest;whiteSpace=wrap;swimlaneFillColor=#ffffff;whiteSpace=wrap;fontSize=13;fontColor=#333333;fillColor=none;strokeOpacity=100;fillOpacity=100;whiteSpace=wrap;spacing=0;rounded=1;absoluteArcSize=1;arcSize=7.5;strokeWidth=0.8;" parent="hk54LcSmm6NopDitDCXq-111" vertex="1">
          <mxGeometry y="30" width="116.8503937007963" height="24" as="geometry" />
        </mxCell>
        <mxCell id="hk54LcSmm6NopDitDCXq-113" value="string" style="shape=partialRectangle;top=0;right=0;bottom=0;part=1;resizeHeight=0;align=left;verticalAlign=top;spacingLeft=4;spacingRight=4;overflow=hidden;rotatable=0;points=[[0,0.5],[1,0.5]];portConstraint=eastwest;whiteSpace=wrap;swimlaneFillColor=#ffffff;whiteSpace=wrap;fontSize=13;fillColor=none;strokeOpacity=100;fillOpacity=100;whiteSpace=wrap;spacing=0;strokeColor=#333333;rounded=1;absoluteArcSize=1;arcSize=7.5;strokeWidth=0.8;" parent="hk54LcSmm6NopDitDCXq-111" vertex="1">
          <mxGeometry x="116.8503937007963" y="30" width="93.1496062992037" height="24" as="geometry" />
        </mxCell>
        <mxCell id="hk54LcSmm6NopDitDCXq-114" value="identity_name" style="strokeColor=none;part=1;resizeHeight=0;align=left;verticalAlign=top;spacingLeft=4;spacingRight=4;overflow=hidden;rotatable=0;points=[[0,0.5],[1,0.5]];portConstraint=eastwest;whiteSpace=wrap;swimlaneFillColor=#ffffff;whiteSpace=wrap;fontSize=13;fontColor=#333333;fillColor=none;strokeOpacity=100;fillOpacity=100;whiteSpace=wrap;spacing=0;rounded=1;absoluteArcSize=1;arcSize=7.5;strokeWidth=0.8;" parent="hk54LcSmm6NopDitDCXq-111" vertex="1">
          <mxGeometry y="54" width="116.8503937007963" height="24" as="geometry" />
        </mxCell>
        <mxCell id="hk54LcSmm6NopDitDCXq-115" value="string" style="shape=partialRectangle;top=0;right=0;bottom=0;part=1;resizeHeight=0;align=left;verticalAlign=top;spacingLeft=4;spacingRight=4;overflow=hidden;rotatable=0;points=[[0,0.5],[1,0.5]];portConstraint=eastwest;whiteSpace=wrap;swimlaneFillColor=#ffffff;whiteSpace=wrap;fontSize=13;fillColor=none;strokeOpacity=100;fillOpacity=100;whiteSpace=wrap;spacing=0;strokeColor=#333333;rounded=1;absoluteArcSize=1;arcSize=7.5;strokeWidth=0.8;" parent="hk54LcSmm6NopDitDCXq-111" vertex="1">
          <mxGeometry x="116.8503937007963" y="54" width="93.1496062992037" height="24" as="geometry" />
        </mxCell>
        <mxCell id="hk54LcSmm6NopDitDCXq-116" value="identity_email" style="strokeColor=none;part=1;resizeHeight=0;align=left;verticalAlign=top;spacingLeft=4;spacingRight=4;overflow=hidden;rotatable=0;points=[[0,0.5],[1,0.5]];portConstraint=eastwest;whiteSpace=wrap;swimlaneFillColor=#ffffff;whiteSpace=wrap;fontSize=13;fontColor=#333333;fillColor=none;strokeOpacity=100;fillOpacity=100;whiteSpace=wrap;spacing=0;rounded=1;absoluteArcSize=1;arcSize=7.5;strokeWidth=0.8;" parent="hk54LcSmm6NopDitDCXq-111" vertex="1">
          <mxGeometry y="78" width="116.8503937007963" height="24" as="geometry" />
        </mxCell>
        <mxCell id="hk54LcSmm6NopDitDCXq-117" value="string" style="shape=partialRectangle;top=0;right=0;bottom=0;part=1;resizeHeight=0;align=left;verticalAlign=top;spacingLeft=4;spacingRight=4;overflow=hidden;rotatable=0;points=[[0,0.5],[1,0.5]];portConstraint=eastwest;whiteSpace=wrap;swimlaneFillColor=#ffffff;whiteSpace=wrap;fontSize=13;fillColor=none;strokeOpacity=100;fillOpacity=100;whiteSpace=wrap;spacing=0;strokeColor=#333333;rounded=1;absoluteArcSize=1;arcSize=7.5;strokeWidth=0.8;" parent="hk54LcSmm6NopDitDCXq-111" vertex="1">
          <mxGeometry x="116.8503937007963" y="78" width="93.1496062992037" height="24" as="geometry" />
        </mxCell>
        <mxCell id="hk54LcSmm6NopDitDCXq-118" value="identity_member" style="strokeColor=none;part=1;resizeHeight=0;align=left;verticalAlign=top;spacingLeft=4;spacingRight=4;overflow=hidden;rotatable=0;points=[[0,0.5],[1,0.5]];portConstraint=eastwest;whiteSpace=wrap;swimlaneFillColor=#ffffff;whiteSpace=wrap;fontSize=13;fillColor=none;strokeOpacity=100;fillOpacity=100;whiteSpace=wrap;spacing=0;rounded=1;absoluteArcSize=1;arcSize=7.5;strokeWidth=0.8;" parent="hk54LcSmm6NopDitDCXq-111" vertex="1">
          <mxGeometry y="102" width="116.8503937007963" height="24" as="geometry" />
        </mxCell>
        <mxCell id="hk54LcSmm6NopDitDCXq-119" value="boolean" style="shape=partialRectangle;top=0;right=0;bottom=0;part=1;resizeHeight=0;align=left;verticalAlign=top;spacingLeft=4;spacingRight=4;overflow=hidden;rotatable=0;points=[[0,0.5],[1,0.5]];portConstraint=eastwest;whiteSpace=wrap;swimlaneFillColor=#ffffff;whiteSpace=wrap;fontSize=13;fillColor=none;strokeOpacity=100;fillOpacity=100;whiteSpace=wrap;spacing=0;strokeColor=#333333;rounded=1;absoluteArcSize=1;arcSize=7.5;strokeWidth=0.8;" parent="hk54LcSmm6NopDitDCXq-111" vertex="1">
          <mxGeometry x="116.8503937007963" y="102" width="93.1496062992037" height="24" as="geometry" />
        </mxCell>
        <mxCell id="hk54LcSmm6NopDitDCXq-120" value="identity_type" style="strokeColor=none;part=1;resizeHeight=0;align=left;verticalAlign=top;spacingLeft=4;spacingRight=4;overflow=hidden;rotatable=0;points=[[0,0.5],[1,0.5]];portConstraint=eastwest;whiteSpace=wrap;swimlaneFillColor=#ffffff;whiteSpace=wrap;fontSize=13;fillColor=none;strokeOpacity=100;fillOpacity=100;whiteSpace=wrap;spacing=0;rounded=1;absoluteArcSize=1;arcSize=7.5;strokeWidth=0.8;" parent="hk54LcSmm6NopDitDCXq-111" vertex="1">
          <mxGeometry y="126" width="116.8503937007963" height="24" as="geometry" />
        </mxCell>
        <mxCell id="hk54LcSmm6NopDitDCXq-121" value="enum" style="shape=partialRectangle;top=0;right=0;bottom=0;part=1;resizeHeight=0;align=left;verticalAlign=top;spacingLeft=4;spacingRight=4;overflow=hidden;rotatable=0;points=[[0,0.5],[1,0.5]];portConstraint=eastwest;whiteSpace=wrap;swimlaneFillColor=#ffffff;whiteSpace=wrap;fontSize=13;fillColor=none;strokeOpacity=100;fillOpacity=100;whiteSpace=wrap;spacing=0;strokeColor=#333333;rounded=1;absoluteArcSize=1;arcSize=7.5;strokeWidth=0.8;" parent="hk54LcSmm6NopDitDCXq-111" vertex="1">
          <mxGeometry x="116.8503937007963" y="126" width="93.1496062992037" height="24" as="geometry" />
        </mxCell>
        <mxCell id="hk54LcSmm6NopDitDCXq-122" value="comments" style="strokeColor=none;part=1;resizeHeight=0;align=left;verticalAlign=top;spacingLeft=4;spacingRight=4;overflow=hidden;rotatable=0;points=[[0,0.5],[1,0.5]];portConstraint=eastwest;whiteSpace=wrap;swimlaneFillColor=#ffffff;whiteSpace=wrap;fontSize=13;fillColor=none;strokeOpacity=100;fillOpacity=100;whiteSpace=wrap;spacing=0;rounded=1;absoluteArcSize=1;arcSize=7.5;strokeWidth=0.8;" parent="hk54LcSmm6NopDitDCXq-111" vertex="1">
          <mxGeometry y="150" width="116.8503937007963" height="24" as="geometry" />
        </mxCell>
        <mxCell id="hk54LcSmm6NopDitDCXq-123" value="string" style="shape=partialRectangle;top=0;right=0;bottom=0;part=1;resizeHeight=0;align=left;verticalAlign=top;spacingLeft=4;spacingRight=4;overflow=hidden;rotatable=0;points=[[0,0.5],[1,0.5]];portConstraint=eastwest;whiteSpace=wrap;swimlaneFillColor=#ffffff;whiteSpace=wrap;fontSize=13;fillColor=none;strokeOpacity=100;fillOpacity=100;whiteSpace=wrap;spacing=0;strokeColor=#333333;rounded=1;absoluteArcSize=1;arcSize=7.5;strokeWidth=0.8;" parent="hk54LcSmm6NopDitDCXq-111" vertex="1">
          <mxGeometry x="116.8503937007963" y="150" width="93.1496062992037" height="24" as="geometry" />
        </mxCell>
        <UserObject label="" lucidchartObjectId="o5-Wimda9Aj0" id="hk54LcSmm6NopDitDCXq-124">
          <mxCell style="html=1;jettySize=18;whiteSpace=wrap;fontSize=13;strokeColor=#5E5E5E;strokeWidth=1.5;rounded=1;arcSize=12;edgeStyle=orthogonalEdgeStyle;startArrow=ERone;startSize=16;;endArrow=ERzeroToOne;endSize=10;;exitX=-0.002;exitY=0.846;exitPerimeter=0;entryX=-0.002;entryY=0.241;entryPerimeter=0;" parent="1" source="hk54LcSmm6NopDitDCXq-60" target="hk54LcSmm6NopDitDCXq-111" edge="1">
            <mxGeometry width="100" height="100" relative="1" as="geometry">
              <Array as="points">
                <mxPoint x="405" y="621" />
                <mxPoint x="405" y="771" />
              </Array>
            </mxGeometry>
          </mxCell>
        </UserObject>
        <UserObject label="" lucidchartObjectId="p-UW9KQ52Cuk" id="hk54LcSmm6NopDitDCXq-132">
          <mxCell style="html=1;jettySize=18;whiteSpace=wrap;fontSize=13;strokeColor=#5E5E5E;strokeWidth=1.5;rounded=1;arcSize=12;edgeStyle=orthogonalEdgeStyle;startArrow=ERone;startSize=16;;endArrow=ERmany;endSize=10;;exitX=1;exitY=0.5;exitDx=0;exitDy=0;entryX=0;entryY=0.5;entryDx=0;entryDy=0;" parent="1" source="hk54LcSmm6NopDitDCXq-14" target="hk54LcSmm6NopDitDCXq-140" edge="1">
            <mxGeometry width="100" height="100" relative="1" as="geometry">
              <Array as="points">
                <mxPoint x="230" y="159" />
                <mxPoint x="230" y="-130" />
              </Array>
              <mxPoint x="159.9999999999996" y="-36.99000000000001" as="sourcePoint" />
              <mxPoint x="170" y="-198" as="targetPoint" />
            </mxGeometry>
          </mxCell>
        </UserObject>
        <mxCell id="hk54LcSmm6NopDitDCXq-135" value="verify_message" style="html=1;overflow=block;blockSpacing=1;whiteSpace=wrap;swimlane;resizeParent=1;resizeParentMax=0;resizeLast=0;collapsible=0;marginBottom=0;fontStyle=0;swimlaneFillColor=#ffffff;startSize=30;whiteSpace=wrap;fontSize=13;fontColor=#333333;align=center;fillColor=#e0e0e0;whiteSpace=wrap;spacing=0;strokeColor=#333333;strokeOpacity=100;fillOpacity=100;rounded=1;absoluteArcSize=1;arcSize=7.5;strokeWidth=0.8;" parent="1" vertex="1">
          <mxGeometry x="320" y="-220" width="210" height="102" as="geometry" />
        </mxCell>
        <mxCell id="hk54LcSmm6NopDitDCXq-136" value="verify_message_id            " style="strokeColor=none;part=1;resizeHeight=0;align=left;verticalAlign=top;spacingLeft=4;spacingRight=4;overflow=hidden;rotatable=0;points=[[0,0.5],[1,0.5]];portConstraint=eastwest;whiteSpace=wrap;swimlaneFillColor=#ffffff;whiteSpace=wrap;fontSize=13;fontColor=#333333;fillColor=none;strokeOpacity=100;fillOpacity=100;whiteSpace=wrap;spacing=0;rounded=1;absoluteArcSize=1;arcSize=7.5;strokeWidth=0.8;" parent="hk54LcSmm6NopDitDCXq-135" vertex="1">
          <mxGeometry y="30" width="129.62500000000088" height="24" as="geometry" />
        </mxCell>
        <mxCell id="hk54LcSmm6NopDitDCXq-137" value="string" style="shape=partialRectangle;top=0;right=0;bottom=0;part=1;resizeHeight=0;align=left;verticalAlign=top;spacingLeft=4;spacingRight=4;overflow=hidden;rotatable=0;points=[[0,0.5],[1,0.5]];portConstraint=eastwest;whiteSpace=wrap;swimlaneFillColor=#ffffff;whiteSpace=wrap;fontSize=13;fontColor=#333333;fillColor=none;strokeOpacity=100;fillOpacity=100;whiteSpace=wrap;spacing=0;strokeColor=#333333;rounded=1;absoluteArcSize=1;arcSize=7.5;strokeWidth=0.8;" parent="hk54LcSmm6NopDitDCXq-135" vertex="1">
          <mxGeometry x="129.62500000000088" y="30" width="80.37499999999912" height="24" as="geometry" />
        </mxCell>
        <mxCell id="hk54LcSmm6NopDitDCXq-138" value="emote" style="strokeColor=none;part=1;resizeHeight=0;align=left;verticalAlign=top;spacingLeft=4;spacingRight=4;overflow=hidden;rotatable=0;points=[[0,0.5],[1,0.5]];portConstraint=eastwest;whiteSpace=wrap;swimlaneFillColor=#ffffff;whiteSpace=wrap;fontSize=13;fontColor=#333333;fillColor=none;strokeOpacity=100;fillOpacity=100;whiteSpace=wrap;spacing=0;rounded=1;absoluteArcSize=1;arcSize=7.5;strokeWidth=0.8;" parent="hk54LcSmm6NopDitDCXq-135" vertex="1">
          <mxGeometry y="54" width="129.62500000000088" height="24" as="geometry" />
        </mxCell>
        <mxCell id="hk54LcSmm6NopDitDCXq-139" value="string" style="shape=partialRectangle;top=0;right=0;bottom=0;part=1;resizeHeight=0;align=left;verticalAlign=top;spacingLeft=4;spacingRight=4;overflow=hidden;rotatable=0;points=[[0,0.5],[1,0.5]];portConstraint=eastwest;whiteSpace=wrap;swimlaneFillColor=#ffffff;whiteSpace=wrap;fontSize=13;fontColor=#333333;fillColor=none;strokeOpacity=100;fillOpacity=100;whiteSpace=wrap;spacing=0;strokeColor=#333333;rounded=1;absoluteArcSize=1;arcSize=7.5;strokeWidth=0.8;" parent="hk54LcSmm6NopDitDCXq-135" vertex="1">
          <mxGeometry x="129.62500000000088" y="54" width="80.37499999999912" height="24" as="geometry" />
        </mxCell>
        <mxCell id="hk54LcSmm6NopDitDCXq-140" value="guild_id" style="strokeColor=none;part=1;resizeHeight=0;align=left;verticalAlign=top;spacingLeft=4;spacingRight=4;overflow=hidden;rotatable=0;points=[[0,0.5],[1,0.5]];portConstraint=eastwest;whiteSpace=wrap;swimlaneFillColor=#ffffff;whiteSpace=wrap;fontSize=13;fontColor=#333333;fillColor=none;strokeOpacity=100;fillOpacity=100;whiteSpace=wrap;spacing=0;rounded=1;absoluteArcSize=1;arcSize=7.5;strokeWidth=0.8;" parent="hk54LcSmm6NopDitDCXq-135" vertex="1">
          <mxGeometry y="78" width="129.62500000000088" height="24" as="geometry" />
        </mxCell>
        <mxCell id="hk54LcSmm6NopDitDCXq-141" value="string" style="shape=partialRectangle;top=0;right=0;bottom=0;part=1;resizeHeight=0;align=left;verticalAlign=top;spacingLeft=4;spacingRight=4;overflow=hidden;rotatable=0;points=[[0,0.5],[1,0.5]];portConstraint=eastwest;whiteSpace=wrap;swimlaneFillColor=#ffffff;whiteSpace=wrap;fontSize=13;fontColor=#333333;fillColor=none;strokeOpacity=100;fillOpacity=100;whiteSpace=wrap;spacing=0;strokeColor=#333333;rounded=1;absoluteArcSize=1;arcSize=7.5;strokeWidth=0.8;" parent="hk54LcSmm6NopDitDCXq-135" vertex="1">
          <mxGeometry x="129.62500000000088" y="78" width="80.37499999999912" height="24" as="geometry" />
        </mxCell>
      </root>
    </mxGraphModel>
  </diagram>
</mxfile>
